<svg width="14" height="14" viewBox="0 0 14 14" fill="none" xmlns="http://www.w3.org/2000/svg">
<path fill-rule="evenodd" clip-rule="evenodd" d="M5.82939 1.71875C6.16002 1.71875 6.46686 1.89064 6.63953 2.17259L7.7501 3.98594H11.2558C11.7114 3.98594 12.1239 4.17062 12.4225 4.46922C12.7211 4.76781 12.9058 5.18031 12.9058 5.63594V10.6388C12.9058 11.0944 12.7211 11.5069 12.4225 11.8055C12.1239 12.1041 11.7114 12.2888 11.2558 12.2888H2.82578C2.37015 12.2888 1.95765 12.1041 1.65906 11.8055C1.36046 11.5069 1.17578 11.0944 1.17578 10.6388V3.36875C1.17578 2.91312 1.36046 2.50062 1.65906 2.20202C1.95765 1.90343 2.37015 1.71875 2.82578 1.71875H5.82939Z" stroke="#3F3F51" style="stroke:#3F3F51;stroke:color(display-p3 0.2485 0.2485 0.3162);stroke-opacity:1;" stroke-width="1.1"/>
<path d="M7.57656 6.57441C7.57656 6.27066 7.33032 6.02441 7.02656 6.02441C6.72281 6.02441 6.47656 6.27066 6.47656 6.57441V9.47441C6.47656 9.77817 6.72281 10.0244 7.02656 10.0244C7.33032 10.0244 7.57656 9.77817 7.57656 9.47441V6.57441Z" fill="#3F3F51" style="fill:#3F3F51;fill:color(display-p3 0.2485 0.2485 0.3162);fill-opacity:1;"/>
<path d="M8.47539 7.47656H5.57539C5.27163 7.47656 5.02539 7.72281 5.02539 8.02656C5.02539 8.33032 5.27163 8.57656 5.57539 8.57656H8.47539C8.77915 8.57656 9.02539 8.33032 9.02539 8.02656C9.02539 7.72281 8.77915 7.47656 8.47539 7.47656Z" fill="#3F3F51" style="fill:#3F3F51;fill:color(display-p3 0.2485 0.2485 0.3162);fill-opacity:1;"/>
</svg>
