<svg width="14" height="14" viewBox="0 0 14 14" fill="none" xmlns="http://www.w3.org/2000/svg">
<path d="M8.16537 1.32422V3.7337C8.16537 4.0604 8.16537 4.22375 8.22895 4.34853C8.28487 4.45829 8.37411 4.54753 8.48387 4.60345C8.60865 4.66703 8.772 4.66703 9.0987 4.66703H11.5082M11.6654 5.82679V10.0337C11.6654 11.0138 11.6654 11.5038 11.4746 11.8781C11.3069 12.2074 11.0392 12.4751 10.7099 12.6429C10.3355 12.8337 9.84546 12.8337 8.86537 12.8337H5.13203C4.15194 12.8337 3.66189 12.8337 3.28755 12.6429C2.95827 12.4751 2.69055 12.2074 2.52277 11.8781C2.33203 11.5038 2.33203 11.0138 2.33203 10.0337V3.96699C2.33203 2.9869 2.33203 2.49685 2.52277 2.12251C2.69055 1.79323 2.95827 1.52551 3.28755 1.35773C3.66189 1.16699 4.15194 1.16699 5.13203 1.16699H7.00557C7.4336 1.16699 7.64762 1.16699 7.84902 1.21534C8.02758 1.25821 8.19829 1.32892 8.35486 1.42487C8.53147 1.53309 8.6828 1.68443 8.98547 1.98709L10.8453 3.84689C11.148 4.14956 11.2993 4.30089 11.4075 4.47749C11.5035 4.63407 11.5742 4.80477 11.617 4.98334C11.6654 5.18474 11.6654 5.39876 11.6654 5.82679Z" stroke="#3F3F51" style="stroke:#3F3F51;stroke:color(display-p3 0.2485 0.2485 0.3162);stroke-opacity:1;" stroke-width="1.1" stroke-linecap="round" stroke-linejoin="round"/>
<path d="M7.57656 6.57441C7.57656 6.27066 7.33032 6.02441 7.02656 6.02441C6.72281 6.02441 6.47656 6.27066 6.47656 6.57441V9.47441C6.47656 9.77817 6.72281 10.0244 7.02656 10.0244C7.33032 10.0244 7.57656 9.77817 7.57656 9.47441V6.57441Z" fill="#3F3F51" style="fill:#3F3F51;fill:color(display-p3 0.2485 0.2485 0.3162);fill-opacity:1;"/>
<path d="M8.47539 7.47754H5.57539C5.27163 7.47754 5.02539 7.72378 5.02539 8.02754C5.02539 8.3313 5.27163 8.57754 5.57539 8.57754H8.47539C8.77915 8.57754 9.02539 8.3313 9.02539 8.02754C9.02539 7.72378 8.77915 7.47754 8.47539 7.47754Z" fill="#3F3F51" style="fill:#3F3F51;fill:color(display-p3 0.2485 0.2485 0.3162);fill-opacity:1;"/>
</svg>
