<svg xmlns="http://www.w3.org/2000/svg" width="70" height="70" viewBox="0 0 70 70" fill="none">
  <g clip-path="url(#clip0_3_134963)">
    <path
      d="M36.3212 57.3503C31.2404 60.1166 24.6254 60.3363 16.4762 58.0094C11.9549 51.1022 9.94359 46.5303 11.6722 38.7759C13.4008 31.0215 18.9998 27.5009 21.4998 16.5009"
      stroke="#3F3F51"
      stroke-width="3"
      stroke-linecap="round"
    />
    <path
      d="M56.0804 27.0694L34.7835 11.021C31.1079 8.25121 25.8828 8.98554 23.113 12.6612C20.3433 16.3368 21.0776 21.5618 24.7532 24.3316L46.0502 40.38C49.7258 43.1498 54.9508 42.4154 57.7206 38.7398C60.4904 35.0642 59.756 29.8392 56.0804 27.0694Z"
      stroke="#3F3F51"
      stroke-width="3"
    />
    <path
      fill-rule="evenodd"
      clip-rule="evenodd"
      d="M50.4666 12.809C51.2017 13.363 51.6041 14.2137 51.6603 15.1414C51.7166 16.069 51.4268 17.0736 50.7775 17.9352L48.4263 21.0553L41.771 16.0402L44.1222 12.9201C44.7715 12.0585 45.6572 11.503 46.5645 11.3014C47.4717 11.0997 48.4004 11.252 49.1355 11.806L50.4666 12.809Z"
      stroke="#3F3F51"
      stroke-width="3"
    />
    <path
      d="M44.0621 46.5345C44.3843 45.6639 45.6157 45.6639 45.9379 46.5345L47.0012 49.408C47.1024 49.6818 47.3182 49.8976 47.592 49.9988L50.4655 51.0621C51.3361 51.3843 51.3361 52.6157 50.4655 52.9379L47.592 54.0012C47.3182 54.1024 47.1024 54.3182 47.0012 54.592L45.9379 57.4655C45.6157 58.3361 44.3843 58.3361 44.0621 57.4655L42.9988 54.592C42.8976 54.3182 42.6818 54.1024 42.408 54.0012L39.5345 52.9379C38.6639 52.6157 38.6639 51.3843 39.5345 51.0621L42.408 49.9988C42.6818 49.8976 42.8976 49.6818 42.9988 49.408L44.0621 46.5345Z"
      fill="#3F3F51"
    />
  </g>
  <defs>
    <clipPath id="clip0_3_134963">
      <rect width="70" height="70" fill="white" />
    </clipPath>
  </defs>
</svg>