<svg xmlns="http://www.w3.org/2000/svg" width="12" height="12" viewBox="0 0 12 12" fill="none">
  <path fill-rule="evenodd" clip-rule="evenodd" d="M1 6C1 3.23858 3.23858 1 6 1C8.76142 1 11 3.23858 11 6C11 8.76142 8.76142 11 6 11C5.33584 11 4.70075 10.8702 4.11961 10.6342C4.06711 10.6129 4.03681 10.6006 4.01443 10.5922C4.01179 10.5912 4.00949 10.5904 4.00752 10.5897C4.00678 10.5898 4.00599 10.5899 4.00515 10.59C3.98669 10.5925 3.96154 10.5966 3.91352 10.6046L2.13458 10.9011C2.12983 10.9019 2.12504 10.9027 2.12022 10.9035C2.03991 10.9169 1.95006 10.9319 1.87202 10.9378C1.78693 10.9443 1.65156 10.9465 1.5085 10.8851C1.33165 10.8093 1.19072 10.6684 1.11486 10.4915C1.0535 10.3484 1.05574 10.2131 1.06216 10.128C1.06805 10.0499 1.08306 9.96009 1.09647 9.87978C1.09728 9.87496 1.09808 9.87017 1.09887 9.86542L1.39536 8.08648C1.40336 8.03846 1.4075 8.01331 1.41 7.99485C1.41011 7.99401 1.41022 7.99321 1.41032 7.99247C1.4096 7.99051 1.40876 7.98821 1.40776 7.98557C1.39936 7.96319 1.3871 7.93289 1.36578 7.88039C1.12976 7.29925 1 6.66416 1 6ZM6 2C3.79086 2 2 3.79086 2 6C2 6.53298 2.10398 7.04044 2.29228 7.50412C2.29526 7.51145 2.29832 7.51895 2.30145 7.5266C2.33198 7.60136 2.36828 7.69027 2.38689 7.77328C2.40379 7.84869 2.41109 7.91459 2.4111 7.99187C2.41111 8.07668 2.39665 8.16242 2.38499 8.2316C2.38388 8.23818 2.3828 8.24461 2.38175 8.25087L2.10828 9.89172L3.74913 9.61825C3.75539 9.6172 3.76182 9.61612 3.76841 9.61501C3.83758 9.60334 3.92332 9.58889 4.00813 9.5889C4.08541 9.58891 4.15131 9.59621 4.22672 9.61311C4.30973 9.63172 4.39864 9.66802 4.47341 9.69855C4.48105 9.70168 4.48855 9.70474 4.49588 9.70772C4.95956 9.89602 5.46702 10 6 10C8.20914 10 10 8.20914 10 6C10 3.79086 8.20914 2 6 2ZM3.5 4.75C3.5 4.47386 3.72386 4.25 4 4.25H6C6.27614 4.25 6.5 4.47386 6.5 4.75C6.5 5.02614 6.27614 5.25 6 5.25H4C3.72386 5.25 3.5 5.02614 3.5 4.75ZM3.5 6.5C3.5 6.22386 3.72386 6 4 6H7.5C7.77614 6 8 6.22386 8 6.5C8 6.77614 7.77614 7 7.5 7H4C3.72386 7 3.5 6.77614 3.5 6.5Z" fill="#5252FF"/>
</svg>
