<svg width="14" height="14" viewBox="0 0 14 14" fill="none" xmlns="http://www.w3.org/2000/svg">
<path d="M11.5195 3.16992V9.76992C11.5195 10.9849 10.5346 11.9699 9.31953 11.9699H4.71953C3.5045 11.9699 2.51953 10.9849 2.51953 9.76992V3.16992" stroke="#3F3F51" style="stroke:#3F3F51;stroke:color(display-p3 0.2485 0.2485 0.3162);stroke-opacity:1;" stroke-width="1.1"/>
<path d="M12.4598 2.77539H1.55977C1.25601 2.77539 1.00977 3.02163 1.00977 3.32539C1.00977 3.62915 1.25601 3.87539 1.55977 3.87539H12.4598C12.7635 3.87539 13.0098 3.62915 13.0098 3.32539C13.0098 3.02163 12.7635 2.77539 12.4598 2.77539Z" fill="#3F3F51" style="fill:#3F3F51;fill:color(display-p3 0.2485 0.2485 0.3162);fill-opacity:1;"/>
<path d="M7.95781 0.824219H6.05781C5.75406 0.824219 5.50781 1.07046 5.50781 1.37422C5.50781 1.67798 5.75406 1.92422 6.05781 1.92422H7.95781C8.26157 1.92422 8.50781 1.67798 8.50781 1.37422C8.50781 1.07046 8.26157 0.824219 7.95781 0.824219Z" fill="#3F3F51" style="fill:#3F3F51;fill:color(display-p3 0.2485 0.2485 0.3162);fill-opacity:1;"/>
<path d="M6.05117 6.0168C6.05117 5.71304 5.80493 5.4668 5.50117 5.4668C5.19742 5.4668 4.95117 5.71304 4.95117 6.0168V8.9168C4.95117 9.22055 5.19742 9.4668 5.50117 9.4668C5.80493 9.4668 6.05117 9.22055 6.05117 8.9168V6.0168Z" fill="#3F3F51" style="fill:#3F3F51;fill:color(display-p3 0.2485 0.2485 0.3162);fill-opacity:1;"/>
<path d="M9.04922 6.08516C9.04922 5.7814 8.80298 5.53516 8.49922 5.53516C8.19546 5.53516 7.94922 5.7814 7.94922 6.08516V8.98516C7.94922 9.28891 8.19546 9.53516 8.49922 9.53516C8.80298 9.53516 9.04922 9.28891 9.04922 8.98516V6.08516Z" fill="#3F3F51" style="fill:#3F3F51;fill:color(display-p3 0.2485 0.2485 0.3162);fill-opacity:1;"/>
</svg>
