<svg xmlns="http://www.w3.org/2000/svg" width="14" height="14" viewBox="0 0 14 14" fill="none">
  <path d="M8.16536 1.32397V3.73346C8.16536 4.06015 8.16537 4.2235 8.22894 4.34828C8.28487 4.45805 8.37411 4.54728 8.48387 4.60321C8.60865 4.66679 8.772 4.66679 9.0987 4.66679H11.5082M8.16536 9.91675H4.66536M9.33203 7.58341H4.66536M11.6654 5.82655V10.0334C11.6654 11.0135 11.6654 11.5036 11.4746 11.8779C11.3068 12.2072 11.0391 12.4749 10.7098 12.6427C10.3355 12.8334 9.84546 12.8334 8.86536 12.8334H5.13203C4.15194 12.8334 3.66189 12.8334 3.28755 12.6427C2.95826 12.4749 2.69055 12.2072 2.52277 11.8779C2.33203 11.5036 2.33203 11.0135 2.33203 10.0334V3.96675C2.33203 2.98666 2.33203 2.49661 2.52277 2.12226C2.69055 1.79298 2.95826 1.52527 3.28755 1.35749C3.66189 1.16675 4.15194 1.16675 5.13203 1.16675H7.00557C7.4336 1.16675 7.64762 1.16675 7.84902 1.2151C8.02758 1.25797 8.19829 1.32868 8.35486 1.42463C8.53147 1.53285 8.6828 1.68418 8.98547 1.98685L10.8453 3.84665C11.1479 4.14931 11.2993 4.30065 11.4075 4.47725C11.5034 4.63383 11.5741 4.80453 11.617 4.98309C11.6654 5.1845 11.6654 5.39851 11.6654 5.82655Z" stroke="#3F3F51" stroke-width="1.1" stroke-linecap="round" stroke-linejoin="round"/>
</svg>
