<svg width="16" height="16" viewBox="0 0 16 16" fill="none" xmlns="http://www.w3.org/2000/svg">
<path d="M9.32422 1.98047V4.56206C9.32422 4.91209 9.32422 5.08711 9.39234 5.2208C9.45226 5.3384 9.54788 5.43402 9.66548 5.49393C9.79917 5.56205 9.97419 5.56205 10.3242 5.56205H12.9059M10.4569 8.02185L7.27033 10.9462L5.81108 9.40915M13.0742 6.80466V11.3121C13.0742 12.3622 13.0742 12.8872 12.8699 13.2882C12.6901 13.641 12.4032 13.9278 12.0504 14.1076C11.6494 14.3121 11.1243 14.3121 10.0742 14.3121H6.07422C5.02412 14.3121 4.49907 14.3121 4.09798 14.1076C3.74518 13.9278 3.45834 13.641 3.27858 13.2882C3.07422 12.8872 3.07422 12.3622 3.07422 11.3121V4.81201C3.07422 3.76192 3.07422 3.23686 3.27858 2.83578C3.45834 2.48298 3.74518 2.19614 4.09798 2.01638C4.49907 1.81201 5.02412 1.81201 6.07422 1.81201H8.08157C8.54019 1.81201 8.76948 1.81201 8.98528 1.86382C9.17659 1.90975 9.35949 1.98551 9.52725 2.08831C9.71646 2.20426 9.87861 2.36641 10.2029 2.69069L12.1955 4.68333C12.5198 5.00762 12.6819 5.16976 12.798 5.35898C12.9007 5.52674 12.9765 5.70963 13.0224 5.90096C13.0742 6.11674 13.0742 6.34605 13.0742 6.80466Z" stroke="#3F3F51" stroke-width="1.1" stroke-linecap="round" stroke-linejoin="round"/>
</svg>
