<svg width="90" height="70" viewBox="0 0 90 70" fill="none" xmlns="http://www.w3.org/2000/svg">
<path d="M81.2977 22.3862C84.9395 22.3862 87.8924 25.3389 87.8924 28.9803C87.8924 31.4206 86.5667 33.5514 84.596 34.6915V36.5161C84.5959 38.3367 83.1185 39.8122 81.2977 39.8122C79.4772 39.8118 78.0015 38.3365 78.0013 36.5161V34.6915C76.0306 33.5514 74.705 31.4206 74.705 28.9803C74.705 25.3391 77.6563 22.3865 81.2977 22.3862ZM73.8998 22.3292C74.0837 22.1455 74.3824 22.1457 74.5663 22.3292L75.2328 22.9957C75.4167 23.1796 75.4167 23.4782 75.2328 23.6621L74.5663 24.3285C74.3824 24.5122 74.0837 24.5123 73.8998 24.3285L73.2333 23.6621C73.0498 23.4783 73.0498 23.1795 73.2333 22.9957L73.8998 22.3292ZM88.031 22.3292C88.2148 22.1462 88.512 22.1463 88.6957 22.3292L89.362 22.9957C89.546 23.1796 89.546 23.4782 89.362 23.6621L88.6957 24.3285C88.5118 24.5116 88.2148 24.5116 88.031 24.3285L87.3646 23.6621C87.1806 23.4782 87.1806 23.1796 87.3646 22.9957L88.031 22.3292ZM81.7687 19.0901C82.0287 19.0901 82.2394 19.301 82.2396 19.561V20.5027C82.2396 20.7628 82.0288 20.9736 81.7687 20.9736H80.8268C80.5669 20.9733 80.3559 20.7627 80.3559 20.5027V19.561C80.3561 19.3012 80.567 19.0904 80.8268 19.0901H81.7687Z" fill="#E6E9F6"/>
<path d="M79.7266 35.2042H82.8689V36.6271C82.8689 37.4948 82.1655 38.1982 81.2977 38.1982C80.43 38.1982 79.7266 37.4948 79.7266 36.6271V35.2042Z" fill="white"/>
<circle cx="81.2977" cy="28.9393" r="4.70273" fill="white"/>
<path d="M45.5414 70C58.4941 70 68.9944 68.2819 68.9944 66.1626C68.9944 64.0432 58.4941 62.3251 45.5414 62.3251C32.5887 62.3251 22.0884 64.0432 22.0884 66.1626C22.0884 68.2819 32.5887 70 45.5414 70Z" fill="#F5F7FF"/>
<path fill-rule="evenodd" clip-rule="evenodd" d="M30.5089 45.5885C35.8473 31.9526 38.3413 22.8998 37.991 18.4298C37.4655 11.7249 35.063 6.90182 30.5089 3.60842C26.6288 0.80235 15.239 -3.25724 6.22929 4.45265C-2.78045 12.1625 1.05273 22.2282 2.97673 24.698C4.90073 27.1678 9.39869 30.0151 13.2728 29.6456C15.8556 29.3992 17.6107 28.4968 18.5382 26.9384C16.2003 37.6632 16.5883 45.4763 19.7022 50.3776C22.8161 55.2789 27.1337 56.6597 32.6551 54.52L30.5089 45.5885Z" fill="#E6E9F6"/>
<path d="M41.6318 31.4332C37.0861 34.0734 33.6495 36.92 31.3221 39.9731C28.9947 43.0263 27.6099 46.5045 27.1676 50.4079C27.0047 52.975 27.5536 55.5406 28.8143 58.1048C29.4726 59.3833 30.868 60.594 33.0005 61.7367C32.5808 62.5909 32.4607 63.2182 32.6402 63.6186C32.8196 64.0191 33.2346 64.3082 33.8851 64.4861L41.1557 66.1625C41.2717 66.1389 41.3714 66.0894 41.4548 66.0142C41.5383 65.9389 41.5973 65.8452 41.6318 65.7331C42.233 65.9808 42.6867 66.0884 42.9931 66.0561C43.2995 66.0238 43.5721 65.8396 43.811 65.5034C44.1975 65.7259 44.5333 65.647 44.8184 65.2665C45.1035 64.886 45.1985 64.3902 45.1032 63.779C45.0278 63.2242 44.6283 62.7345 43.9049 62.31C43.1815 61.8854 42.3648 61.6614 41.4548 61.6379C41.7433 61.4386 42.0038 61.2414 42.2364 61.0464C42.4689 60.8513 42.6883 60.6459 42.8945 60.4302C43.4679 60.4366 44.1092 60.4134 44.8184 60.3604C45.5276 60.3075 46.2342 60.2301 46.938 60.1283L46.5758 62.0457C46.5476 62.5082 46.6328 62.8416 46.8316 63.0459C47.0303 63.2503 47.4195 63.4047 47.9993 63.5092L56.9516 64.4861C57.0348 64.4487 57.1004 64.4099 57.1485 64.3697C57.1966 64.3295 57.2346 64.2816 57.2626 64.226C57.5169 64.3204 57.7135 64.3607 57.8524 64.3469C57.9912 64.3332 58.136 64.259 58.2867 64.1244C58.6678 64.1911 58.9933 64.1352 59.2633 63.9566C59.5333 63.778 59.7023 63.5068 59.7705 63.143C59.8255 62.4102 59.6194 61.7911 59.1521 61.2856C58.6848 60.7802 58.055 60.495 57.2626 60.4302H55.0184C57.2611 58.1902 58.3506 55.9955 58.2867 53.8461C58.2228 51.6968 57.0127 49.8282 54.6562 48.2405C54.8558 47.6144 55.0381 47.0695 55.2031 46.6056C55.3681 46.1418 55.5438 45.6805 55.73 45.2217C57.5404 46.3126 58.982 46.6715 60.0546 46.2984C62.3747 45.4913 64.4014 43.9258 66.1348 41.6021C67.6001 41.8883 68.6562 41.7523 69.3031 41.1941C69.95 40.636 70.1336 39.7023 69.8539 38.3931C69.2577 36.5531 67.9021 37.2754 67.4076 36.5902C67.6301 35.129 67.2775 34.0833 66.2874 33.5893C65.2973 33.0953 65.3873 34.3933 64.8347 35.7277C64.517 36.1942 64.2842 36.5866 64.1363 36.9048C63.9883 37.223 63.8869 37.5497 63.832 37.8847C63.5268 37.9078 63.1875 37.9369 62.8142 37.9721C62.4408 38.0073 62.0722 38.0448 61.7082 38.0847C60.9316 37.7116 60.2345 37.2404 59.6171 36.6713C58.9997 36.1022 58.4906 35.4615 58.0898 34.7494L41.6318 31.4332Z" fill="#EDEFFC" stroke="#EDEFFC" stroke-width="0.99089"/>
<mask id="mask0_355_40923" style="mask-type:luminance" maskUnits="userSpaceOnUse" x="27" y="31" width="45" height="36">
<path d="M41.6318 31.4332C37.0861 34.0734 33.6495 36.92 31.3221 39.9731C28.9947 43.0263 27.6099 46.5045 27.1676 50.4079C27.0047 52.975 27.5536 55.5406 28.8143 58.1048C29.4726 59.3833 30.868 60.594 33.0005 61.7367C32.5808 62.5909 32.4607 63.2182 32.6402 63.6186C32.8196 64.0191 33.2346 64.3083 33.8851 64.4861L41.1557 66.1625C41.2717 66.1389 41.3714 66.0894 41.4548 66.0142C41.5383 65.9389 41.5973 65.8452 41.6318 65.7331C42.233 65.9808 42.6867 66.0885 42.9931 66.0561C43.2995 66.0238 43.5721 65.8396 43.811 65.5034C44.1975 65.7259 44.5333 65.647 44.8184 65.2665C45.1035 64.886 45.1985 64.3902 45.1032 63.779C45.0278 63.2242 44.6283 62.7345 43.9049 62.31C43.1815 61.8854 42.3648 61.6614 41.4548 61.6379C41.7433 61.4386 42.0038 61.2414 42.2364 61.0464C42.4689 60.8513 42.6883 60.6459 42.8945 60.4302C43.4679 60.4366 44.1092 60.4134 44.8184 60.3604C45.5276 60.3075 46.2342 60.2301 46.938 60.1283L46.5758 62.0457C46.5476 62.5082 46.6328 62.8416 46.8316 63.0459C47.0303 63.2503 47.4195 63.4047 47.9993 63.5092L56.9516 64.4861C57.0348 64.4487 57.1004 64.4099 57.1485 64.3697C57.1966 64.3295 57.2346 64.2816 57.2626 64.226C57.5169 64.3204 57.7135 64.3607 57.8524 64.3469C57.9912 64.3332 58.136 64.259 58.2867 64.1244C58.6678 64.1911 58.9933 64.1352 59.2633 63.9566C59.5333 63.778 59.7023 63.5068 59.7705 63.143C59.8255 62.4102 59.6194 61.7911 59.1521 61.2856C58.6848 60.7802 58.055 60.495 57.2626 60.4302H55.0184C57.2611 58.1902 58.3506 55.9955 58.2867 53.8461C58.2228 51.6968 57.0127 49.8282 54.6562 48.2405C54.8558 47.6144 55.0381 47.0695 55.2031 46.6056C55.3681 46.1418 55.5438 45.6805 55.73 45.2217C57.5404 46.3126 58.982 46.6715 60.0546 46.2984C62.3747 45.4913 64.4014 43.9258 66.1348 41.6021C67.6001 41.8883 68.6562 41.7523 69.3031 41.1941C69.95 40.636 70.1336 39.7023 69.8539 38.3931C71.5433 37.4615 72.1408 36.6531 71.6463 35.9678C71.1518 35.2825 69.7389 35.49 67.4076 36.5902C67.6301 35.129 67.3951 34.2863 66.7025 34.0622C66.0099 33.8381 65.3873 34.3933 64.8347 35.7277C64.517 36.1942 64.2842 36.5866 64.1363 36.9048C63.9883 37.223 63.8869 37.5497 63.832 37.8847C63.5268 37.9078 63.1875 37.9369 62.8142 37.9721C62.4408 38.0073 62.0722 38.0448 61.7082 38.0847C60.9316 37.7116 60.2345 37.2404 59.6171 36.6713C58.9997 36.1022 58.4906 35.4615 58.0898 34.7494L41.6318 31.4332Z" fill="white"/>
</mask>
<g mask="url(#mask0_355_40923)">
<path fill-rule="evenodd" clip-rule="evenodd" d="M42.0425 52.7655C42.0425 52.7655 42.0962 48.6082 42.8943 46.9262C45.3502 41.7508 48.7406 39.0792 49.4159 38.9114C49.874 39.3215 50.5446 39.3907 51.077 39.0828L51.5635 38.8014C52.4349 38.2976 53.4891 38.2187 54.426 38.5872L57.9507 39.9736C56.4467 43.7464 55.2369 46.8418 54.2533 49.2452C54.2533 49.2452 54.4388 53.3368 52.6421 55.9644C50.8454 58.592 46.9291 60.1336 46.9291 60.1336C46.9291 60.1336 45.6751 60.4889 44.8946 60.5427C44.1141 60.5966 42.8943 60.4302 42.8943 60.4302L42.0425 52.7655Z" fill="white"/>
</g>
<mask id="mask1_355_40923" style="mask-type:luminance" maskUnits="userSpaceOnUse" x="27" y="31" width="43" height="36">
<path d="M41.6318 31.4332C37.0861 34.0734 33.6495 36.92 31.3221 39.9731C28.9947 43.0263 27.6099 46.5045 27.1676 50.4079C27.0047 52.975 27.5536 55.5406 28.8143 58.1048C29.4726 59.3833 30.868 60.594 33.0005 61.7367C32.5808 62.5909 32.4607 63.2182 32.6402 63.6186C32.8196 64.0191 33.2346 64.3082 33.8851 64.4861L41.1557 66.1625C41.2717 66.1389 41.3714 66.0894 41.4548 66.0142C41.5383 65.9389 41.5973 65.8452 41.6318 65.7331C42.233 65.9808 42.6867 66.0884 42.9931 66.0561C43.2995 66.0238 43.5721 65.8396 43.811 65.5034C44.1975 65.7259 44.5333 65.647 44.8184 65.2665C45.1035 64.886 45.1985 64.3902 45.1032 63.779C45.0278 63.2242 44.6283 62.7345 43.9049 62.31C43.1815 61.8854 42.3648 61.6614 41.4548 61.6379C41.7433 61.4386 42.0038 61.2414 42.2364 61.0464C42.4689 60.8513 42.6883 60.6459 42.8945 60.4302C43.4679 60.4366 44.1092 60.4134 44.8184 60.3604C45.5276 60.3075 46.2342 60.2301 46.938 60.1283L46.5758 62.0457C46.5476 62.5082 46.6328 62.8416 46.8316 63.0459C47.0303 63.2503 47.4195 63.4047 47.9993 63.5092L56.9516 64.4861C57.0348 64.4487 57.1004 64.4099 57.1485 64.3697C57.1966 64.3295 57.2346 64.2816 57.2626 64.226C57.5169 64.3204 57.7135 64.3607 57.8524 64.3469C57.9912 64.3332 58.136 64.259 58.2867 64.1244C58.6678 64.1911 58.9933 64.1352 59.2633 63.9566C59.5333 63.778 59.7023 63.5068 59.7705 63.143C59.8255 62.4102 59.6194 61.7911 59.1521 61.2856C58.6848 60.7802 58.055 60.495 57.2626 60.4302H55.0184C57.2611 58.1902 58.3506 55.9955 58.2867 53.8461C58.2228 51.6968 57.0127 49.8282 54.6562 48.2405C54.8558 47.6144 55.0381 47.0695 55.2031 46.6056C55.3681 46.1418 55.5438 45.6805 55.73 45.2217C57.5404 46.3126 58.982 46.6715 60.0546 46.2984C62.3747 45.4913 64.4014 43.9258 66.1348 41.6021C67.6001 41.8883 68.6562 41.7523 69.3031 41.1941C69.95 40.636 70.1336 39.7023 69.8539 38.3931C69.2577 36.5531 67.9021 37.2754 67.4076 36.5902C67.6301 35.129 66.9763 33.8616 66.1348 33.5893C65.4422 33.3652 65.3873 34.3933 64.8347 35.7277C64.517 36.1942 64.2842 36.5866 64.1363 36.9048C63.9883 37.223 63.8869 37.5497 63.832 37.8847C63.5268 37.9078 63.1875 37.9369 62.8142 37.9721C62.4408 38.0073 62.0722 38.0448 61.7082 38.0847C60.9316 37.7116 60.2345 37.2404 59.6171 36.6713C58.9997 36.1022 58.4906 35.4615 58.0898 34.7494L41.6318 31.4332Z" fill="white"/>
</mask>
<g mask="url(#mask1_355_40923)">
<path d="M38.1714 63.1299C41.2178 63.1299 43.6873 60.6793 43.6873 57.6562C43.6873 54.6331 41.2178 52.1825 38.1714 52.1825C35.1251 52.1825 32.6555 54.6331 32.6555 57.6562C32.6555 60.6793 35.1251 63.1299 38.1714 63.1299Z" fill="#EDEFFC"/>
</g>
<path d="M43.4591 20.2453C42.8093 18.4439 42.6878 16.6238 43.0947 14.785C43.5016 12.9462 44.3913 10.8061 45.7637 8.36465C47.4372 10.2073 48.5565 11.6053 49.1215 12.5589C49.6866 13.5125 50.1094 14.4609 50.3899 15.4041C50.7981 15.2897 51.287 15.1913 51.8567 15.1089C52.4263 15.0266 52.9992 14.9715 53.5752 14.9437C53.7136 14.001 53.9991 12.9418 54.4318 11.7662C54.8646 10.5906 55.3862 9.45671 55.9969 8.36465C57.3693 10.1287 58.2694 11.61 58.6972 12.8086C59.1249 14.0073 59.3158 15.1811 59.2698 16.3301C61.0111 17.5783 62.2512 18.8423 62.9901 20.122C63.729 21.4017 64.1127 22.95 64.1411 24.7669C65.6653 26.6679 65.775 28.7052 64.4702 30.8787C63.5318 32.4742 61.4109 33.8563 58.1075 35.0248C55.0873 35.1447 52.3231 34.9289 49.8147 34.3775C47.3064 33.8261 44.9247 32.9106 42.6696 31.631C41.3451 31.3612 40.5806 30.3772 40.3763 28.6791C40.1719 26.981 40.7168 25.6317 42.011 24.6312C42.0735 23.5577 42.229 22.6828 42.4774 22.0067C42.7258 21.3305 43.0531 20.7434 43.4591 20.2453Z" fill="#EDEFFC"/>
<mask id="mask2_355_40923" style="mask-type:luminance" maskUnits="userSpaceOnUse" x="39" y="7" width="27" height="29">
<path d="M43.4591 20.2453C42.8093 18.4439 42.6878 16.6238 43.0947 14.785C43.5016 12.9462 44.3913 10.8061 45.7637 8.36465C47.4372 10.2073 48.5565 11.6053 49.1215 12.5589C49.6866 13.5125 50.1094 14.4609 50.3899 15.4041C50.7981 15.2897 51.287 15.1913 51.8567 15.1089C52.4263 15.0266 52.9992 14.9715 53.5752 14.9437C53.7136 14.001 53.9991 12.9418 54.4318 11.7662C54.8646 10.5906 55.3862 9.45671 55.9969 8.36465C57.3693 10.1287 58.2694 11.61 58.6972 12.8086C59.1249 14.0073 59.3158 15.1811 59.2698 16.3301C61.0111 17.5783 62.2512 18.8423 62.9901 20.122C63.729 21.4017 64.1127 22.95 64.1411 24.7669C65.6653 26.6679 65.775 28.7052 64.4702 30.8787C63.5318 32.4742 61.4109 33.8563 58.1075 35.0248C55.0873 35.1447 52.3231 34.9289 49.8147 34.3775C47.3064 33.8261 44.9247 32.9106 42.6696 31.631C41.3451 31.3612 40.5806 30.3772 40.3763 28.6791C40.1719 26.981 40.7168 25.6317 42.011 24.6312C42.0735 23.5577 42.229 22.6828 42.4774 22.0067C42.7258 21.3305 43.0531 20.7434 43.4591 20.2453Z" fill="white" stroke="black" stroke-width="0.99089"/>
</mask>
<g mask="url(#mask2_355_40923)">
<path fill-rule="evenodd" clip-rule="evenodd" d="M43.7004 35.0699C45.3029 34.9592 47.0588 34.2744 48.968 33.0156C50.3554 32.1008 51.4472 31.0281 52.2435 29.7974C52.933 28.732 53.8651 27.8525 54.9599 27.2337C57.9397 25.5494 59.7779 24.5899 60.4745 24.355C61.3117 24.0727 62.0074 24.3987 63.7921 25.0496C65.2384 27.3702 65.8535 29.4035 64.4072 31.4332C62.9609 33.4629 60.1973 35.1275 56.1164 36.4268C54.1259 36.8482 52.0784 36.9439 49.9738 36.7139C47.8693 36.4839 45.7781 35.9359 43.7004 35.0699Z" fill="white"/>
<path fill-rule="evenodd" clip-rule="evenodd" d="M57.7919 28.8996C58.2139 29.0559 58.8333 29.1086 59.65 29.0579C60.5908 28.9995 61.518 28.8209 62.4316 28.522C62.5867 28.4711 62.7529 28.5578 62.8029 28.716C62.8251 28.7864 62.8211 28.8628 62.7917 28.9304C62.1612 30.3622 61.5144 31.4888 60.8509 32.3099C60.6157 32.601 60.3743 32.8528 60.1268 33.0653C59.2057 33.8559 57.8303 33.7356 57.0548 32.7965C56.8316 32.5263 56.6748 32.2057 56.5974 31.8613C56.4159 31.0537 56.5718 30.1626 57.0651 29.1882L57.0656 29.1885C57.2021 28.9198 57.513 28.7961 57.792 28.8993L57.7919 28.8996Z" fill="#EDEFFC"/>
</g>
<path fill-rule="evenodd" clip-rule="evenodd" d="M52.7589 42.2493C53.0153 42.3245 53.3137 42.3941 53.654 42.4582C54.3334 42.5861 55.0331 42.6643 55.7532 42.6928L57.2607 40.6123C57.7198 39.6692 58.1709 38.2182 58.7399 38.2182C59.3089 38.2182 60.3243 39.261 60.1666 40.3341L59.929 41.3948C60.3344 42.2884 62.8662 40.0004 63.2918 43.3278C63.5822 45.5988 63.0666 45.9838 62.0784 46.9415C61.0902 47.8992 59.4843 48.1651 57.2607 47.7392C53.6318 49.822 50.9463 50.9554 49.2043 51.1394C47.4622 51.3234 45.5606 50.6744 43.4993 49.1925C42.0144 47.8222 41.0637 46.2891 40.647 44.5934C40.2303 42.8976 40.2303 40.9499 40.647 38.7501C41.6015 36.6253 42.8782 35.4265 44.4771 35.1538C46.8726 34.7861 48.6054 35.4651 49.6755 37.1908L51.8599 41.5014C52.0433 41.8638 52.3686 42.1347 52.7589 42.2493Z" fill="url(#paint0_linear_355_40923)"/>
<path fill-rule="evenodd" clip-rule="evenodd" d="M60.0383 25.6159C59.9911 25.1705 60.475 24.8265 61.4317 24.7565C62.3884 24.6865 62.8251 25.1524 62.8251 25.446C62.8251 25.7396 62.5984 26.6374 61.6409 26.7293C60.6833 26.8212 60.0855 26.0614 60.0383 25.6159Z" fill="#EDEFFC"/>
<defs>
<linearGradient id="paint0_linear_355_40923" x1="43.3316" y1="37.0217" x2="51.9518" y2="44.4926" gradientUnits="userSpaceOnUse">
<stop stop-color="#EDEFFC"/>
<stop offset="1" stop-color="#E6E9F9"/>
</linearGradient>
</defs>
</svg>
