<svg width="14" height="14" viewBox="0 0 14 14" fill="none" xmlns="http://www.w3.org/2000/svg">
<path d="M8.16732 1.32422V3.7337C8.16732 4.0604 8.16732 4.22375 8.2309 4.34853C8.28682 4.45829 8.37606 4.54753 8.48582 4.60345C8.61061 4.66703 8.77395 4.66703 9.10065 4.66703H11.5101M8.16732 9.91699H4.66732M9.33398 7.58366H4.66732M11.6673 5.82679V10.0337C11.6673 11.0138 11.6673 11.5038 11.4766 11.8781C11.3088 12.2074 11.0411 12.4751 10.7118 12.6429C10.3375 12.8337 9.84741 12.8337 8.86732 12.8337H5.13398C4.15389 12.8337 3.66385 12.8337 3.2895 12.6429C2.96022 12.4751 2.6925 12.2074 2.52472 11.8781C2.33398 11.5038 2.33398 11.0138 2.33398 10.0337V3.96699C2.33398 2.9869 2.33398 2.49685 2.52472 2.12251C2.6925 1.79323 2.96022 1.52551 3.2895 1.35773C3.66385 1.16699 4.15389 1.16699 5.13398 1.16699H7.00752C7.43555 1.16699 7.64957 1.16699 7.85097 1.21534C8.02954 1.25821 8.20024 1.32892 8.35682 1.42487C8.53342 1.53309 8.68475 1.68443 8.98742 1.98709L10.8472 3.84689C11.1499 4.14956 11.3012 4.30089 11.4094 4.47749C11.5054 4.63407 11.5761 4.80477 11.619 4.98334C11.6673 5.18474 11.6673 5.39876 11.6673 5.82679Z" stroke="#3F3F51" style="stroke:#3F3F51;stroke:color(display-p3 0.2485 0.2485 0.3162);stroke-opacity:1;" stroke-width="1.1" stroke-linecap="round" stroke-linejoin="round"/>
</svg>
