<svg width="14" height="14" viewBox="0 0 14 14" fill="none" xmlns="http://www.w3.org/2000/svg">
<path fill-rule="evenodd" clip-rule="evenodd" d="M5.88649 2.36567C5.81612 2.3414 5.72473 2.33378 5.26366 2.33378H3.03399C2.69766 2.33378 2.4805 2.33424 2.31522 2.34774C2.15675 2.36069 2.098 2.38267 2.06916 2.39736C1.9594 2.45329 1.87016 2.54253 1.81423 2.65229C1.79954 2.68113 1.77756 2.73989 1.76461 2.89836C1.75111 3.06364 1.75065 3.28079 1.75065 3.61712V8.31319L1.83748 8.11635C1.85028 8.08734 1.86288 8.05871 1.87532 8.03046C2.10443 7.51009 2.27706 7.11799 2.56059 6.8209C2.80986 6.55971 3.11635 6.35993 3.45593 6.23728C3.84217 6.09777 4.27059 6.09807 4.83917 6.09847C4.87003 6.0985 4.90131 6.09852 4.93302 6.09852L10.8802 6.09852C11.097 6.09851 11.2961 6.09851 11.4766 6.10222L11.4766 5.69779C11.4766 5.55549 11.4766 5.51838 11.4394 5.376C11.4395 5.376 11.4395 5.37615 11.4394 5.376C11.4393 5.37605 11.4343 5.36083 11.4199 5.32508C11.4042 5.28604 11.3835 5.23824 11.361 5.18891C11.3386 5.13957 11.316 5.09265 11.2969 5.05517C11.2793 5.02084 11.2709 5.00692 11.2711 5.00683C11.2711 5.00682 11.2712 5.00698 11.2715 5.00729C11.242 4.96405 11.2188 4.92908 11.2005 4.90032C11.1472 4.86035 11.0903 4.82483 11.0303 4.79428C10.9391 4.74779 10.8083 4.70992 10.5525 4.68902C10.29 4.66757 9.95032 4.66712 9.45065 4.66712H7.58399C7.36304 4.66712 7.16105 4.54228 7.06224 4.34466L6.4115 3.04319C6.20531 2.63081 6.15763 2.55246 6.10445 2.50037C6.04268 2.43987 5.96823 2.39386 5.88649 2.36567ZM12.6432 6.31134C12.6771 6.32884 12.7106 6.34792 12.7435 6.36872C13.1183 6.60531 13.3893 6.97527 13.5019 7.40392C13.5794 7.69899 13.5469 7.9904 13.485 8.27139C13.425 8.54336 13.321 8.87251 13.1978 9.26204L12.616 11.1021C12.6013 11.1484 12.5815 11.1916 12.5572 11.2312C12.5446 11.2567 12.5304 11.286 12.5148 11.318C12.4437 11.4642 12.3444 11.6685 12.2426 11.8439C12.1692 11.9705 12.081 12.1073 11.9781 12.2308C11.8787 12.3501 11.7408 12.4873 11.56 12.5795C11.2769 12.7237 10.9754 12.7812 10.6476 12.808C10.3319 12.8338 9.94432 12.8338 9.47476 12.8338H3.94321C3.47365 12.8338 3.08611 12.8338 2.77042 12.808C2.44253 12.7812 2.14112 12.7237 1.85801 12.5795C1.41896 12.3558 1.06201 11.9988 0.838304 11.5598C0.694051 11.2766 0.636555 10.9752 0.609765 10.6473C0.583972 10.3317 0.583978 9.94411 0.583985 9.47454L0.583985 3.59463C0.583974 3.28713 0.583965 3.02185 0.601818 2.80335C0.62066 2.57273 0.662261 2.34336 0.774724 2.12263C0.942502 1.79335 1.21022 1.52563 1.5395 1.35786C1.76022 1.24539 1.9896 1.20379 2.22022 1.18495C2.43872 1.1671 2.704 1.16711 3.0115 1.16712L5.26366 1.16712C5.28804 1.16712 5.31222 1.16709 5.3362 1.16705C5.68244 1.1666 5.98693 1.16619 6.2669 1.26276C6.51212 1.34735 6.73547 1.48538 6.92079 1.66689C7.13237 1.87411 7.26818 2.14664 7.42262 2.45654C7.43331 2.478 7.4441 2.49964 7.455 2.52145L7.94451 3.50045L9.47474 3.50045C9.94431 3.50044 10.3319 3.50044 10.6476 3.52623C10.9754 3.55302 11.2769 3.61052 11.56 3.75477C11.7304 3.84161 11.8885 3.94854 12.0312 4.07255L12.034 4.07504L12.0418 4.08196C12.0472 4.08681 12.0648 4.10276 12.085 4.12513C12.1088 4.15153 12.1343 4.18458 12.1576 4.22495C12.1655 4.2386 12.1722 4.25145 12.1776 4.26273C12.1849 4.2743 12.2024 4.30167 12.2373 4.35293C12.3008 4.44596 12.3747 4.59987 12.4226 4.70502C12.4706 4.81017 12.5383 4.96689 12.5668 5.07582C12.642 5.36228 12.6432 5.50771 12.6432 5.71152V6.31134ZM11.5217 10.6932L12.0775 8.93541C12.2107 8.51407 12.2983 8.23512 12.3456 8.0204C12.3922 7.80887 12.3817 7.73163 12.3735 7.70032C12.336 7.55744 12.2456 7.43411 12.1207 7.35525C12.0933 7.33797 12.0229 7.30471 11.8071 7.28537C11.5881 7.26574 11.2957 7.26518 10.8538 7.26518H4.93302C4.22774 7.26518 4.0213 7.27351 3.85225 7.33457C3.68246 7.39589 3.52922 7.49578 3.40458 7.62638C3.28049 7.75641 3.18956 7.94193 2.90491 8.58721L1.85234 10.9733C1.86048 10.9941 1.86899 11.0128 1.87781 11.0301C1.98966 11.2496 2.16814 11.4281 2.38766 11.54C2.4789 11.5864 2.60968 11.6243 2.86542 11.6452C3.12798 11.6667 3.46765 11.6671 3.96732 11.6671H9.45065C9.95032 11.6671 10.29 11.6667 10.5525 11.6452C10.8033 11.6247 10.934 11.5879 11.0249 11.5427C11.0276 11.5405 11.0472 11.5255 11.0818 11.484C11.1269 11.4298 11.1779 11.3543 11.2335 11.2584C11.3131 11.1213 11.3767 10.9901 11.4409 10.8579C11.4673 10.8033 11.4939 10.7486 11.5217 10.6932Z" fill="#3F3F51" style="fill:#3F3F51;fill:color(display-p3 0.2485 0.2485 0.3162);fill-opacity:1;"/>
</svg>
