<svg width="14" height="14" viewBox="0 0 14 14" fill="none" xmlns="http://www.w3.org/2000/svg">
<path fill-rule="evenodd" clip-rule="evenodd" d="M5.88649 2.36567C5.81612 2.3414 5.72473 2.33378 5.26366 2.33378H3.03399C2.69766 2.33378 2.4805 2.33424 2.31522 2.34774C2.15675 2.36069 2.098 2.38267 2.06916 2.39736C1.9594 2.45329 1.87016 2.54253 1.81423 2.65229C1.79954 2.68113 1.77756 2.73989 1.76461 2.89836C1.75274 3.04369 1.75095 3.22914 1.75069 3.50045H6.64013L6.4115 3.04319C6.20531 2.63081 6.15763 2.55246 6.10445 2.50037C6.04268 2.43987 5.96823 2.39386 5.88649 2.36567ZM7.94451 3.50045L7.455 2.52145C7.4441 2.49964 7.43331 2.478 7.42262 2.45654C7.26818 2.14664 7.13237 1.87411 6.92079 1.66689C6.73547 1.48538 6.51212 1.34735 6.2669 1.26276C5.98693 1.16619 5.68244 1.1666 5.3362 1.16705C5.31222 1.16709 5.28804 1.16712 5.26366 1.16712L3.0115 1.16712C2.704 1.16711 2.43872 1.1671 2.22022 1.18495C1.9896 1.20379 1.76022 1.24539 1.5395 1.35786C1.21022 1.52563 0.942502 1.79335 0.774724 2.12263C0.662261 2.34336 0.62066 2.57273 0.601818 2.80335C0.583965 3.02185 0.583974 3.28713 0.583985 3.59463L0.583985 9.47454C0.583978 9.94411 0.583972 10.3317 0.609765 10.6473C0.636555 10.9752 0.694051 11.2766 0.838304 11.5598C1.06201 11.9988 1.41896 12.3558 1.85801 12.5795C2.14112 12.7237 2.44253 12.7812 2.77042 12.808C3.08611 12.8338 3.47365 12.8338 3.94321 12.8338H10.0581C10.5277 12.8338 10.9152 12.8338 11.2309 12.808C11.5588 12.7812 11.8602 12.7237 12.1433 12.5795C12.5823 12.3558 12.9393 11.9988 13.163 11.5598C13.3073 11.2766 13.3648 10.9752 13.3915 10.6473C13.4173 10.3317 13.4173 9.94412 13.4173 9.47456V6.85968C13.4173 6.39012 13.4173 6.00258 13.3915 5.68689C13.3648 5.359 13.3073 5.05759 13.163 4.77447C12.9393 4.33543 12.5823 3.97847 12.1433 3.75477C11.8602 3.61052 11.5588 3.55302 11.2309 3.52623C10.9152 3.50044 10.5276 3.50044 10.0581 3.50045L7.94451 3.50045ZM7.57225 4.66712C7.58036 4.66729 7.58849 4.66729 7.59663 4.66712H10.034C10.5337 4.66712 10.8733 4.66757 11.1359 4.68902C11.3916 4.70992 11.5224 4.74779 11.6136 4.79428C11.8332 4.90613 12.0116 5.08461 12.1235 5.30413C12.17 5.39536 12.2079 5.52615 12.2287 5.78189C12.2502 6.04444 12.2507 6.38411 12.2507 6.88378V9.45045C12.2507 9.95012 12.2502 10.2898 12.2287 10.5523C12.2079 10.8081 12.17 10.9389 12.1235 11.0301C12.0116 11.2496 11.8332 11.4281 11.6136 11.54C11.5224 11.5864 11.3916 11.6243 11.1359 11.6452C10.8733 11.6667 10.5337 11.6671 10.034 11.6671H3.96732C3.46765 11.6671 3.12798 11.6667 2.86542 11.6452C2.60968 11.6243 2.4789 11.5864 2.38766 11.54C2.16814 11.4281 1.98966 11.2496 1.87781 11.0301C1.83133 10.9389 1.79345 10.8081 1.77256 10.5523C1.75111 10.2898 1.75065 9.95012 1.75065 9.45045V4.66712H7.57225Z" fill="#3F3F51" style="fill:#3F3F51;fill:color(display-p3 0.2485 0.2485 0.3162);fill-opacity:1;"/>
</svg>
