<svg width="16" height="16" viewBox="0 0 16 16" fill="none" xmlns="http://www.w3.org/2000/svg">
<rect width="16" height="16" fill="white"/>
<rect x="1" y="1" width="14" height="14" rx="4" fill="#FF952B"/>
<path d="M6.125 10.5508C6.43579 10.5508 6.68842 10.8025 6.68848 11.1133V11.6758C6.68848 11.9866 6.43583 12.2393 6.125 12.2393H5.5625C5.25175 12.2392 5 11.9866 5 11.6758V11.1133C5.00006 10.8025 5.25179 10.5509 5.5625 10.5508H6.125ZM6.23145 4C6.45737 4 6.64042 4.18327 6.64062 4.40918V9.32227C6.64062 9.54835 6.4575 9.73145 6.23145 9.73145H5.41211C5.18622 9.73125 5.00293 9.54823 5.00293 9.32227V4.40918C5.00314 4.18339 5.18635 4.00019 5.41211 4H6.23145Z" fill="white"/>
<path d="M8.81348 10.5508C9.12422 10.5508 9.37587 10.8025 9.37598 11.1133V11.6768C9.37575 11.9874 9.12415 12.2392 8.81348 12.2393H8.25098C7.94029 12.2393 7.68772 11.9874 7.6875 11.6768V11.1133C7.68761 10.8025 7.94022 10.5508 8.25098 10.5508H8.81348ZM8.91992 4C9.14567 4.00018 9.32885 4.18343 9.3291 4.40918V9.32227C9.3291 9.54823 9.14582 9.73126 8.91992 9.73145H8.10059C7.87453 9.73145 7.69141 9.54835 7.69141 9.32227V4.40918C7.69166 4.18331 7.87469 4 8.10059 4H8.91992Z" fill="white"/>
<path d="M11.5029 10.5508C11.8137 10.5508 12.0653 10.8025 12.0654 11.1133V11.6768C12.0652 11.9874 11.8136 12.2392 11.5029 12.2393H10.9404C10.6297 12.2393 10.3772 11.9874 10.377 11.6768V11.1133C10.3771 10.8025 10.6297 10.5508 10.9404 10.5508H11.5029ZM11.6094 4C11.8351 4.00018 12.0183 4.18343 12.0186 4.40918V9.32227C12.0186 9.54823 11.8353 9.73126 11.6094 9.73145H10.79C10.564 9.73145 10.3809 9.54835 10.3809 9.32227V4.40918C10.3811 4.18331 10.5641 4 10.79 4H11.6094Z" fill="white"/>
</svg>
