<svg xmlns="http://www.w3.org/2000/svg" width="14" height="14" viewBox="0 0 14 14" fill="none">
  <path fill-rule="evenodd" clip-rule="evenodd" d="M7.00078 1.46948C7.50242 1.46948 8.00407 1.62318 8.43141 1.93056L11.6394 4.2381C12.1488 4.6045 12.4508 5.19364 12.4508 5.82112V10.3909C12.4508 10.9293 12.2325 11.4168 11.8796 11.7697C11.5268 12.1226 11.0393 12.3409 10.5008 12.3409H3.50078C2.9623 12.3409 2.4748 12.1226 2.12192 11.7697C1.76904 11.4168 1.55078 10.9293 1.55078 10.3909V5.82112C1.55078 5.19364 1.85273 4.6045 2.36212 4.2381L5.57015 1.93056C5.9975 1.62318 6.49914 1.46948 7.00078 1.46948Z" stroke="black" stroke-width="1.1"/>
  <path d="M4.48828 8.59668C5.09042 9.45928 5.93267 9.89058 7.01504 9.89058C8.09741 9.89058 8.92921 9.45928 9.51044 8.59668" stroke="black" stroke-width="1.1" stroke-linecap="round" stroke-linejoin="round"/>
</svg>
