<svg xmlns="http://www.w3.org/2000/svg" width="16" height="16" viewBox="0 0 16 16" fill="none">
  <g clip-path="url(#clip0_136_27874)">
    <path d="M9.66602 14C10.0341 14.0002 10.332 14.2989 10.332 14.667C10.3319 15.035 10.034 15.3329 9.66602 15.333H6.33301C5.96478 15.333 5.66618 15.0557 5.66602 14.6875C5.66601 14.3194 5.96396 14.0001 6.33203 14H9.66602ZM7.93359 0.667969C8.38782 0.659525 8.83951 0.702838 9.2793 0.796875C9.65039 0.87624 9.8403 1.27344 9.71289 1.63086C9.58795 1.98099 9.20476 2.16042 8.83887 2.09473C8.55049 2.04286 8.25586 2.01891 7.95996 2.02441C7.18674 2.0388 6.43184 2.25285 5.77441 2.64258C5.11725 3.03225 4.58138 3.5836 4.22168 4.23828C3.86206 4.89288 3.69169 5.62753 3.72656 6.36621C3.76152 7.10507 4.00061 7.82255 4.4209 8.44336C4.84126 9.06432 5.42735 9.56685 6.11914 9.89746C6.35736 10.0114 6.50873 10.2478 6.50879 10.5068V11.9766H9.57812V10.5068C9.57818 10.2471 9.73052 10.01 9.96973 9.89648C10.09 9.83937 10.3039 9.70824 10.5166 9.57031C10.837 9.36248 11.2673 9.40825 11.5225 9.69238C11.7889 9.98913 11.7595 10.4293 11.4219 10.6416C11.2318 10.7611 11.053 10.8643 10.9678 10.9131V12.1182C10.9677 12.4435 10.8333 12.7534 10.5977 12.9805C10.3621 13.2073 10.0447 13.333 9.71582 13.333H6.37109C6.04224 13.333 5.72472 13.2073 5.48926 12.9805C5.25361 12.7534 5.11923 12.4434 5.11914 12.1182V10.9121C4.37496 10.484 3.73942 9.89639 3.2627 9.19238C2.70478 8.36819 2.38454 7.41414 2.33789 6.42969C2.29132 5.44513 2.52004 4.46674 2.99805 3.59668C3.476 2.7268 4.18598 1.99693 5.05371 1.48242C5.92157 0.967945 6.91624 0.686908 7.93359 0.667969ZM11.2148 2.67773C11.3339 2.21976 11.9834 2.21825 12.1045 2.67578L12.2246 3.13086C12.3937 3.77147 12.8946 4.27235 13.5352 4.44141L13.9893 4.56152C14.4473 4.68242 14.446 5.33246 13.9873 5.45117L13.541 5.56738C12.8967 5.73416 12.3916 6.2354 12.2217 6.87891L12.1045 7.32422C11.9835 7.78187 11.3339 7.78035 11.2148 7.32227L11.1016 6.88477C10.9339 6.23743 10.4277 5.73201 9.78027 5.56445L9.34375 5.45117C8.88533 5.33233 8.88389 4.68247 9.3418 4.56152L9.78613 4.44336C10.4298 4.2735 10.9318 3.76943 11.0986 3.125L11.2148 2.67773Z" fill="#3F3F51"/>
  </g>
  <defs>
    <clipPath id="clip0_136_27874">
      <rect width="16" height="16" fill="white"/>
    </clipPath>
  </defs>
</svg>
