<svg width="77" height="60" viewBox="0 0 77 60" fill="none" xmlns="http://www.w3.org/2000/svg">
<path d="M69.253 19.1879C72.3745 19.1879 74.9055 21.7188 74.9055 24.84C74.9055 26.9316 73.7692 28.758 72.0801 29.7353V31.2992C72.0799 32.8598 70.8136 34.1245 69.253 34.1245C67.6925 34.1241 66.4276 32.8596 66.4275 31.2992V29.7353C64.7383 28.7581 63.602 26.9317 63.602 24.84C63.602 21.719 66.1317 19.1882 69.253 19.1879ZM62.9119 19.1391C63.0695 18.9816 63.3255 18.9817 63.4832 19.1391L64.0545 19.7103C64.2121 19.8679 64.212 20.1239 64.0545 20.2815L63.4832 20.8527C63.3255 21.0101 63.0695 21.0103 62.9119 20.8527L62.3406 20.2815C62.1833 20.1239 62.1833 19.8679 62.3406 19.7103L62.9119 19.1391ZM75.0244 19.1391C75.1819 18.9822 75.4366 18.9822 75.5941 19.1391L76.1652 19.7103C76.3229 19.868 76.3229 20.1239 76.1652 20.2815L75.5941 20.8527C75.4364 21.0096 75.1819 21.0097 75.0244 20.8527L74.4531 20.2815C74.2954 20.1239 74.2954 19.868 74.4531 19.7103L75.0244 19.1391ZM69.6566 16.3627C69.8795 16.3627 70.0601 16.5434 70.0603 16.7663V17.5735C70.0603 17.7964 69.8796 17.9771 69.6566 17.9771H68.8493C68.6266 17.9768 68.4457 17.7963 68.4457 17.5735V16.7663C68.4458 16.5436 68.6266 16.3629 68.8493 16.3627H69.6566Z" fill="#E6E9F6"/>
<path d="M67.9102 30.1747H70.6036V31.3943C70.6036 32.138 70.0006 32.741 69.2569 32.741C68.5131 32.741 67.9102 32.138 67.9102 31.3943V30.1747Z" fill="white"/>
<circle cx="69.2536" cy="24.8048" r="4.03091" fill="white"/>
<path d="M38.6065 59.9999C49.7088 59.9999 58.7091 58.5273 58.7091 56.7107C58.7091 54.8941 49.7088 53.4215 38.6065 53.4215C27.5041 53.4215 18.5039 54.8941 18.5039 56.7107C18.5039 58.5273 27.5041 59.9999 38.6065 59.9999Z" fill="#F5F7FF"/>
<path fill-rule="evenodd" clip-rule="evenodd" d="M25.7219 39.0758C30.2976 27.388 32.4354 19.6284 32.1351 15.797C31.6847 10.0499 29.6254 5.91584 25.7219 3.09293C22.3961 0.687728 12.6334 -2.79192 4.91082 3.81656C-2.81181 10.425 0.473764 19.0527 2.12291 21.1697C3.77205 23.2867 7.62744 25.7272 10.9481 25.4105C13.1619 25.1993 14.6663 24.4258 15.4613 23.09C13.4574 32.2827 13.79 38.9796 16.459 43.1807C19.128 47.3819 22.8289 48.5654 27.5615 46.7314L25.7219 39.0758Z" fill="#939ABF"/>
<path d="M35.2578 26.9426C31.3614 29.2056 28.4158 31.6456 26.4209 34.2625C24.426 36.8795 23.239 39.8609 22.8599 43.2066C22.7203 45.407 23.1908 47.6061 24.2714 49.8039C24.8356 50.8998 26.0317 51.9375 27.8595 52.9171C27.4998 53.6492 27.3969 54.1869 27.5507 54.5301C27.7045 54.8734 28.0602 55.1212 28.6178 55.2737L34.8497 56.7106C34.9491 56.6903 35.0346 56.6479 35.1061 56.5834C35.1776 56.5189 35.2282 56.4386 35.2578 56.3425C35.7731 56.5548 36.162 56.6471 36.4246 56.6194C36.6872 56.5917 36.9209 56.4338 37.1257 56.1456C37.4569 56.3364 37.7448 56.2687 37.9892 55.9426C38.2336 55.6164 38.3149 55.1914 38.2333 54.6676C38.1686 54.192 37.8262 53.7723 37.2062 53.4084C36.5861 53.0445 35.8861 52.8524 35.1061 52.8323C35.3534 52.6615 35.5767 52.4925 35.776 52.3253C35.9753 52.1581 36.1633 51.9821 36.3401 51.7972C36.8316 51.8027 37.3813 51.7827 37.9892 51.7373C38.5971 51.6919 39.2027 51.6256 39.806 51.5384L39.4955 53.1819C39.4713 53.5783 39.5443 53.8641 39.7147 54.0392C39.8851 54.2143 40.2187 54.3467 40.7156 54.4363L48.389 55.2737C48.4603 55.2416 48.5166 55.2084 48.5578 55.1739C48.599 55.1394 48.6316 55.0984 48.6556 55.0507C48.8736 55.1316 49.0421 55.1662 49.1611 55.1544C49.2801 55.1425 49.4042 55.079 49.5334 54.9636C49.86 55.0208 50.1391 54.9728 50.3705 54.8198C50.6019 54.6667 50.7468 54.4343 50.8052 54.1224C50.8524 53.4943 50.6757 52.9636 50.2752 52.5304C49.8746 52.0971 49.3348 51.8527 48.6556 51.7972H46.732C48.6543 49.8771 49.5881 47.996 49.5334 46.1537C49.4787 44.3114 48.4414 42.7097 46.4215 41.3488C46.5926 40.8122 46.7489 40.3451 46.8903 39.9475C47.0318 39.55 47.1823 39.1545 47.342 38.7613C48.8937 39.6964 50.1293 40.004 51.0487 39.6842C53.0374 38.9924 54.7746 37.6506 56.2603 35.6588C57.5163 35.9041 58.4215 35.7876 58.976 35.3091C59.5305 34.8307 59.6879 34.0304 59.4481 32.9082C58.9371 31.3311 57.7751 31.9502 57.3513 31.3628C57.542 30.1104 57.2398 29.2141 56.3911 28.7907C55.5425 28.3673 55.6196 29.4798 55.1459 30.6236C54.8736 31.0234 54.6741 31.3598 54.5473 31.6325C54.4205 31.9053 54.3336 32.1853 54.2865 32.4724C54.0249 32.4922 53.7341 32.5172 53.4141 32.5474C53.0941 32.5775 52.7781 32.6097 52.4661 32.6439C51.8004 32.324 51.203 31.9202 50.6738 31.4324C50.1446 30.9446 49.7082 30.3955 49.3646 29.7851L35.2578 26.9426Z" fill="#AAB1D6" stroke="#AAB1D6" stroke-width="0.99089"/>
<mask id="mask0_338_8786" style="mask-type:luminance" maskUnits="userSpaceOnUse" x="22" y="26" width="40" height="31">
<path d="M35.2578 26.9426C31.3614 29.2056 28.4158 31.6456 26.4209 34.2625C24.426 36.8795 23.239 39.8609 22.8599 43.2066C22.7203 45.407 23.1908 47.6061 24.2714 49.8039C24.8356 50.8998 26.0317 51.9376 27.8595 52.9171C27.4998 53.6492 27.3969 54.1869 27.5507 54.5301C27.7045 54.8734 28.0602 55.1212 28.6178 55.2737L34.8497 56.7106C34.9491 56.6903 35.0346 56.6479 35.1061 56.5834C35.1776 56.5189 35.2282 56.4386 35.2578 56.3425C35.7731 56.5548 36.162 56.6471 36.4246 56.6194C36.6872 56.5917 36.9209 56.4338 37.1257 56.1456C37.4569 56.3364 37.7448 56.2687 37.9892 55.9426C38.2336 55.6164 38.3149 55.1914 38.2333 54.6676C38.1686 54.192 37.8262 53.7723 37.2062 53.4084C36.5861 53.0445 35.8861 52.8524 35.1061 52.8323C35.3534 52.6615 35.5767 52.4925 35.776 52.3253C35.9753 52.1581 36.1633 51.9821 36.3401 51.7972C36.8316 51.8027 37.3813 51.7827 37.9892 51.7373C38.5971 51.6919 39.2027 51.6256 39.806 51.5384L39.4955 53.1819C39.4713 53.5783 39.5443 53.8641 39.7147 54.0392C39.8851 54.2143 40.2187 54.3467 40.7156 54.4363L48.389 55.2737C48.4603 55.2416 48.5166 55.2084 48.5578 55.1739C48.599 55.1394 48.6316 55.0984 48.6556 55.0507C48.8736 55.1316 49.0421 55.1662 49.1611 55.1544C49.2801 55.1425 49.4042 55.079 49.5334 54.9636C49.86 55.0208 50.1391 54.9728 50.3705 54.8198C50.6019 54.6667 50.7468 54.4343 50.8052 54.1224C50.8524 53.4943 50.6757 52.9636 50.2752 52.5304C49.8746 52.0971 49.3348 51.8527 48.6556 51.7972H46.732C48.6543 49.8771 49.5881 47.996 49.5334 46.1537C49.4787 44.3114 48.4414 42.7097 46.4215 41.3488C46.5926 40.8122 46.7489 40.3451 46.8903 39.9475C47.0318 39.55 47.1823 39.1545 47.342 38.7613C48.8937 39.6964 50.1293 40.004 51.0488 39.6842C53.0374 38.9924 54.7746 37.6506 56.2603 35.6588C57.5163 35.9041 58.4215 35.7876 58.976 35.3091C59.5305 34.8307 59.6879 34.0304 59.4481 32.9082C60.8962 32.1097 61.4083 31.4168 60.9845 30.8294C60.5606 30.242 59.3496 30.4198 57.3513 31.3628C57.542 30.1104 57.3405 29.3882 56.7469 29.1961C56.1533 29.004 55.6196 29.4798 55.1459 30.6236C54.8736 31.0234 54.6741 31.3598 54.5473 31.6325C54.4205 31.9053 54.3336 32.1853 54.2865 32.4724C54.0249 32.4922 53.7341 32.5172 53.4141 32.5474C53.0941 32.5775 52.7781 32.6097 52.4661 32.6439C51.8004 32.324 51.203 31.9202 50.6738 31.4324C50.1446 30.9446 49.7082 30.3955 49.3646 29.7851L35.2578 26.9426Z" fill="white"/>
</mask>
<g mask="url(#mask0_338_8786)">
<path fill-rule="evenodd" clip-rule="evenodd" d="M35.6094 45.2275C35.6094 45.2275 35.6554 41.6641 36.3395 40.2224C38.4446 35.7863 41.3506 33.4964 41.9295 33.3525C42.3221 33.7041 42.8969 33.7634 43.3533 33.4994L43.7702 33.2583C44.5171 32.8264 45.4208 32.7588 46.2238 33.0747L49.245 34.2631C46.6793 40.6989 45.1126 44.8352 44.0851 46.5733C43.0577 48.3115 41.352 50.02 39.428 51.7973H36.3395L35.6094 45.2275Z" fill="white"/>
</g>
<mask id="mask1_338_8786" style="mask-type:luminance" maskUnits="userSpaceOnUse" x="22" y="26" width="38" height="31">
<path d="M35.2578 26.9426C31.3614 29.2056 28.4158 31.6456 26.4209 34.2625C24.426 36.8795 23.239 39.8609 22.8599 43.2066C22.7203 45.407 23.1908 47.6061 24.2714 49.8039C24.8356 50.8998 26.0317 51.9375 27.8595 52.9171C27.4998 53.6492 27.3969 54.1869 27.5507 54.5301C27.7045 54.8734 28.0602 55.1212 28.6178 55.2737L34.8497 56.7106C34.9491 56.6903 35.0346 56.6479 35.1061 56.5834C35.1776 56.5189 35.2282 56.4386 35.2578 56.3425C35.7731 56.5548 36.162 56.6471 36.4246 56.6194C36.6872 56.5917 36.9209 56.4338 37.1257 56.1456C37.4569 56.3364 37.7448 56.2687 37.9892 55.9426C38.2336 55.6164 38.3149 55.1914 38.2333 54.6676C38.1686 54.192 37.8262 53.7723 37.2062 53.4084C36.5861 53.0445 35.8861 52.8524 35.1061 52.8323C35.3534 52.6615 35.5767 52.4925 35.776 52.3253C35.9753 52.1581 36.1633 51.9821 36.3401 51.7972C36.8316 51.8027 37.3813 51.7827 37.9892 51.7373C38.5971 51.6919 39.2027 51.6256 39.806 51.5384L39.4955 53.1819C39.4713 53.5783 39.5443 53.8641 39.7147 54.0392C39.8851 54.2143 40.2187 54.3467 40.7156 54.4363L48.389 55.2737C48.4603 55.2416 48.5166 55.2084 48.5578 55.1739C48.599 55.1394 48.6316 55.0984 48.6556 55.0507C48.8736 55.1316 49.0421 55.1662 49.1611 55.1544C49.2801 55.1425 49.4042 55.079 49.5334 54.9636C49.86 55.0208 50.1391 54.9728 50.3705 54.8198C50.6019 54.6667 50.7468 54.4343 50.8052 54.1224C50.8524 53.4943 50.6757 52.9636 50.2752 52.5304C49.8746 52.0971 49.3348 51.8527 48.6556 51.7972H46.732C48.6543 49.8771 49.5881 47.996 49.5334 46.1537C49.4787 44.3114 48.4414 42.7097 46.4215 41.3488C46.5926 40.8122 46.7489 40.3451 46.8903 39.9475C47.0318 39.55 47.1823 39.1545 47.342 38.7613C48.8937 39.6964 50.1293 40.004 51.0487 39.6842C53.0374 38.9924 54.7746 37.6506 56.2603 35.6588C57.5163 35.9041 58.4215 35.7876 58.976 35.3091C59.5305 34.8307 59.6879 34.0304 59.4481 32.9082C58.9371 31.3311 57.7751 31.9502 57.3513 31.3628C57.542 30.1104 56.9816 29.0241 56.2603 28.7907C55.6667 28.5986 55.6196 29.4798 55.1459 30.6236C54.8736 31.0234 54.6741 31.3598 54.5473 31.6325C54.4205 31.9053 54.3336 32.1853 54.2865 32.4724C54.0249 32.4922 53.7341 32.5172 53.4141 32.5474C53.0941 32.5775 52.7781 32.6097 52.4661 32.6439C51.8004 32.324 51.203 31.9202 50.6738 31.4324C50.1446 30.9446 49.7082 30.3955 49.3646 29.7851L35.2578 26.9426Z" fill="white"/>
</mask>
<g mask="url(#mask1_338_8786)">
<path d="M32.2904 54.1112C34.9016 54.1112 37.0183 52.0106 37.0183 49.4194C37.0183 46.8282 34.9016 44.7277 32.2904 44.7277C29.6793 44.7277 27.5625 46.8282 27.5625 49.4194C27.5625 52.0106 29.6793 54.1112 32.2904 54.1112Z" fill="#AAB1D6"/>
</g>
<path d="M36.8227 17.3534C36.2658 15.8093 36.1617 14.2492 36.5105 12.6731C36.8592 11.0969 37.6218 9.26257 38.7982 7.16992C40.2326 8.74929 41.192 9.94766 41.6763 10.765C42.1606 11.5824 42.523 12.3953 42.7635 13.2037C43.1133 13.1056 43.5324 13.0213 44.0207 12.9507C44.509 12.8802 45 12.8329 45.4938 12.8091C45.6123 12.0011 45.8571 11.0932 46.228 10.0855C46.5989 9.07783 47.046 8.10597 47.5694 7.16992C48.7458 8.68193 49.5173 9.95164 49.884 10.979C50.2506 12.0064 50.4142 13.0126 50.3748 13.9974C51.8673 15.0673 52.9303 16.1508 53.5636 17.2476C54.197 18.3445 54.5258 19.6716 54.5502 21.229C55.8566 22.8584 55.9507 24.6047 54.8323 26.4677C54.0279 27.8353 52.21 29.0199 49.3785 30.0215C46.7898 30.1242 44.4205 29.9393 42.2705 29.4666C40.1205 28.994 38.079 28.2093 36.146 27.1125C35.0108 26.8812 34.3555 26.0378 34.1804 24.5823C34.0052 23.1268 34.4723 21.9703 35.5815 21.1127C35.6351 20.1925 35.7684 19.4426 35.9813 18.8631C36.1943 18.2835 36.4747 17.7803 36.8227 17.3534Z" fill="#AAB1D6"/>
<mask id="mask2_338_8786" style="mask-type:luminance" maskUnits="userSpaceOnUse" x="33" y="6" width="24" height="25">
<path d="M36.8227 17.3536C36.2658 15.8095 36.1617 14.2494 36.5105 12.6733C36.8592 11.0972 37.6218 9.26281 38.7982 7.17017C40.2326 8.74954 41.192 9.9479 41.6763 10.7653C42.1606 11.5826 42.523 12.3955 42.7635 13.2039C43.1133 13.1059 43.5324 13.0216 44.0207 12.951C44.509 12.8804 45 12.8332 45.4938 12.8093C45.6123 12.0013 45.8571 11.0935 46.228 10.0858C46.5989 9.07808 47.046 8.10621 47.5694 7.17017C48.7458 8.68218 49.5173 9.95188 49.884 10.9793C50.2506 12.0067 50.4142 13.0128 50.3748 13.9977C51.8673 15.0676 52.9303 16.151 53.5636 17.2479C54.197 18.3448 54.5258 19.6719 54.5502 21.2292C55.8566 22.8587 55.9507 24.6049 54.8323 26.4679C54.0279 27.8355 52.21 29.0201 49.3785 30.0217C46.7898 30.1245 44.4205 29.9395 42.2705 29.4669C40.1205 28.9942 38.079 28.2095 36.146 27.1128C35.0108 26.8815 34.3555 26.0381 34.1804 24.5826C34.0052 23.1271 34.4723 21.9705 35.5815 21.1129C35.6351 20.1927 35.7684 19.4429 35.9813 18.8633C36.1943 18.2838 36.4747 17.7805 36.8227 17.3536Z" fill="white" stroke="black" stroke-width="0.99089"/>
</mask>
<g mask="url(#mask2_338_8786)">
<path fill-rule="evenodd" clip-rule="evenodd" d="M37.0312 30.0602C38.4048 29.9653 39.9098 29.3783 41.5463 28.2993C42.7355 27.5152 43.6713 26.5958 44.3539 25.5409C44.9449 24.6277 45.7438 23.8738 46.6822 23.3434C49.2363 21.8998 50.812 21.0773 51.409 20.876C52.1266 20.634 52.723 20.9135 54.2527 21.4713C55.4924 23.4604 56.0196 25.2033 54.7799 26.943C53.5402 28.6828 51.1714 30.1095 47.6735 31.2233C45.9674 31.5845 44.2124 31.6665 42.4084 31.4693C40.6045 31.2722 38.8121 30.8025 37.0312 30.0602Z" fill="white"/>
<path fill-rule="evenodd" clip-rule="evenodd" d="M49.11 24.7713C49.4718 24.9053 50.0027 24.9505 50.7027 24.907C51.5091 24.8569 52.3039 24.7038 53.0869 24.4477C53.2199 24.404 53.3623 24.4784 53.4052 24.6139C53.4243 24.6743 53.4208 24.7397 53.3956 24.7977C52.8551 26.025 52.3008 26.9906 51.7321 27.6944C51.5304 27.9439 51.3236 28.1598 51.1114 28.3419C50.3219 29.0195 49.143 28.9164 48.4782 28.1115C48.2869 27.8799 48.1525 27.6051 48.0862 27.3099C47.9306 26.6176 48.0643 25.8539 48.4871 25.0187L48.4875 25.0189C48.6046 24.7886 48.871 24.6825 49.1101 24.771L49.11 24.7713Z" fill="#AAB1D6"/>
</g>
<path fill-rule="evenodd" clip-rule="evenodd" d="M44.794 36.2136C45.0138 36.278 45.2696 36.3377 45.5613 36.3927C46.1436 36.5023 46.7433 36.5693 47.3605 36.5937L48.6527 34.8105C49.0462 34.0021 49.4329 32.7584 49.9206 32.7584C50.4083 32.7584 51.2787 33.6522 51.1435 34.572L50.9398 35.4812C51.2873 36.2471 53.4575 34.2859 53.8222 37.138C54.0711 39.0846 53.6292 39.4146 52.7822 40.2354C51.9352 41.0563 50.5587 41.2843 48.6527 40.9193C45.5422 42.7045 43.2404 43.676 41.7472 43.8337C40.254 43.9913 38.624 43.4351 36.8572 42.1649C35.5845 40.9903 34.7696 39.6763 34.4124 38.2228C34.0552 36.7693 34.0552 35.0998 34.4124 33.2143C35.2306 31.393 36.3249 30.3655 37.6954 30.1318C39.7487 29.8166 41.2339 30.3985 42.1511 31.8777L44.0234 35.5726C44.1807 35.8832 44.4595 36.1154 44.794 36.2136Z" fill="url(#paint0_linear_338_8786)"/>
<path fill-rule="evenodd" clip-rule="evenodd" d="M51.034 21.9566C50.9935 21.5748 51.4083 21.2799 52.2283 21.2199C53.0483 21.1599 53.4226 21.5593 53.4226 21.8109C53.4226 22.0626 53.2283 22.8321 52.4076 22.9108C51.5868 22.9896 51.0744 22.3383 51.034 21.9566Z" fill="#AAB1D6"/>
<defs>
<linearGradient id="paint0_linear_338_8786" x1="36.7135" y1="31.7328" x2="44.1022" y2="38.1364" gradientUnits="userSpaceOnUse">
<stop stop-color="#B3B9D9"/>
<stop offset="1" stop-color="#E2E4F0"/>
</linearGradient>
</defs>
</svg>
