<svg xmlns="http://www.w3.org/2000/svg" width="19" height="24" viewBox="0 0 19 24" fill="none">
  <g clip-path="url(#clip0_602_35390)">
    <path fill-rule="evenodd" clip-rule="evenodd" d="M18.9921 15.3057C18.9488 16.5212 18.6423 17.6925 18.0666 18.8511C17.1969 20.5985 15.7855 22.0104 13.9563 22.9601L13.5322 23.1785L13.4053 22.9189C13.3372 22.7765 13.2072 22.5802 13.1237 22.4789C13.037 22.3808 12.9658 22.2953 12.9658 22.2858C12.9658 22.2795 13.0215 22.2573 13.0927 22.2351C13.297 22.1718 13.9222 21.8774 14.2689 21.6812C16.0826 20.646 17.5559 18.9904 18.3947 17.0372C18.6857 16.3693 18.8621 15.7045 18.9549 14.9258C18.9952 14.6061 19.0107 14.7675 18.9921 15.3057Z" fill="url(#paint0_linear_602_35390)"/>
    <path d="M7.41014 0.139285C8.40368 0.478004 9.33532 1.31056 9.81198 2.28873C10.1463 2.96933 10.3165 3.89368 10.2453 4.63443C10.1803 5.30554 10.0441 5.79937 9.75936 6.37867C9.2889 7.34418 8.63892 8.12925 7.19348 9.48413C5.75733 10.8327 4.9433 11.7254 4.42022 12.5199C4.05809 13.0676 3.64334 13.9888 3.43596 14.7105C2.7829 16.9613 3.10168 19.1614 4.31808 20.76C4.50688 21.0069 4.88759 21.4153 4.88759 21.3678C4.88759 21.3551 4.84735 21.2633 4.79783 21.162C4.69259 20.9468 10.6384 24.0364 9.51484 23.9952C5.62423 23.8528 2.2722 21.4628 0.743193 17.7463C0.362489 16.8188 0.117971 15.8058 0.0251159 14.7802C-0.0275017 14.1914 0.00654474 12.9694 0.0901139 12.4028C0.405821 10.2629 1.32199 8.35717 2.76742 6.81869C3.32144 6.22989 3.90642 5.74555 5.01139 4.96365C5.74185 4.44449 6.07922 4.16909 6.39183 3.83353C7.06967 3.10862 7.39466 2.36787 7.39776 1.54165C7.39776 1.00982 7.24919 0.544482 6.95825 0.167776L6.82825 0L6.97991 0.0221576C7.06348 0.0348202 7.25538 0.0886357 7.41014 0.139285Z" fill="url(#paint1_linear_602_35390)"/>
    <path fill-rule="evenodd" clip-rule="evenodd" d="M4.88758 21.3678C4.88758 21.3551 4.84734 21.2633 4.79782 21.162C4.69258 20.9467 4.57497 20.5764 4.49759 20.206C4.40783 19.7881 4.41712 18.696 4.50997 18.2465C4.73592 17.186 5.20328 16.2775 5.95541 15.4323C6.26492 15.084 6.80348 14.6409 7.41013 14.2293C7.88059 13.9128 8.06011 13.7672 8.31082 13.5139C8.71938 13.0929 8.88033 12.8396 9.13413 12.1907C9.24865 11.8963 9.40031 11.5417 9.4715 11.4024C9.61697 11.1175 9.89863 10.6712 10.0162 10.5477L10.0936 10.4623L10.0317 10.342C9.74387 9.76583 9.75935 8.93961 10.0689 8.25584C10.1865 7.9931 10.2979 7.81899 10.4867 7.60057L10.6167 7.45178L10.7777 7.50243C11.341 7.67021 11.83 8.17037 12.0498 8.80349C12.1148 8.99343 12.2231 9.49043 12.2231 9.60439C12.2231 9.63288 12.254 9.63605 12.7152 9.69619C13.845 9.84181 14.8199 10.3103 15.767 11.1619C16.1818 11.5322 16.3396 11.7095 16.7296 12.235C17.0206 12.6212 17.1103 12.7921 17.1134 12.9409C17.1134 13.1214 16.9401 13.2733 16.7358 13.2733C16.6337 13.2733 16.6337 13.2733 16.643 13.4126C16.6584 13.5994 16.5656 13.7798 16.3242 14.0204C15.8289 14.5174 15.1016 14.8181 14.2257 14.8878C13.7181 14.9258 13.5912 14.9606 13.4302 15.0999C13.2104 15.293 13.1671 15.4164 13.1671 15.8533C13.1671 16.2933 13.1919 16.3883 13.5231 17.262C13.8357 18.0914 13.8759 18.2781 13.8759 18.9081C13.879 19.3449 13.8666 19.4779 13.8078 19.709C13.6902 20.1965 13.4333 20.6745 13.1454 20.9531C13.0031 21.0923 12.7462 21.2886 12.7307 21.2728C12.7245 21.2665 12.74 21.162 12.7647 21.0417C12.7895 20.9214 12.8112 20.6713 12.8112 20.4846C12.8112 19.9622 12.709 19.5285 12.4769 19.0505C12.0714 18.218 11.2481 17.4994 10.3041 17.1512C10.0998 17.0752 9.5984 16.9454 9.51483 16.9454C9.49936 16.9454 9.62316 17.0182 9.7934 17.1069C10.3722 17.4076 10.6662 17.6102 11.0191 17.9521C11.4679 18.3826 11.8331 18.9999 11.9817 19.5729C12.0374 19.7945 12.0498 19.9274 12.0498 20.3168C12.0529 20.7979 12.025 20.9879 11.9074 21.3583C11.8424 21.5609 11.6072 22.0642 11.5081 22.2066C11.4431 22.2953 11.4307 22.3428 11.4772 22.3111C11.5329 22.2794 12.0219 22.3523 12.2076 22.4251C12.4521 22.5169 12.7431 22.8081 12.8731 23.093C12.9783 23.3241 12.9876 23.3874 12.9133 23.4191C11.9786 23.8084 10.6384 24.0364 9.51483 23.9952C5.62422 23.8527 4.88758 21.4152 4.88758 21.3678Z" fill="black"/>
    <path d="M14.0336 11.37C13.7227 11.5203 13.628 11.8276 13.7938 12.1283C14.001 12.489 14.3889 12.606 14.7679 12.4189C15.0433 12.2819 15.0907 12.1617 14.9782 11.9145C14.7739 11.4602 14.3475 11.2163 14.0336 11.37Z" fill="white"/>
  </g>
  <defs>
    <linearGradient id="paint0_linear_602_35390" x1="15.9829" y1="14.7624" x2="15.9829" y2="23.1785" gradientUnits="userSpaceOnUse">
      <stop stop-color="#B9B9B9"/>
      <stop offset="1"/>
    </linearGradient>
    <linearGradient id="paint1_linear_602_35390" x1="513.065" y1="0" x2="513.065" y2="2434.78" gradientUnits="userSpaceOnUse">
      <stop/>
      <stop offset="1" stop-color="#757575"/>
    </linearGradient>
    <clipPath id="clip0_602_35390">
      <rect width="19" height="24" fill="white"/>
    </clipPath>
  </defs>
</svg>
