<svg width="16" height="16" viewBox="0 0 16 16" fill="none" xmlns="http://www.w3.org/2000/svg">
<rect width="16" height="16" fill="white"/>
<rect x="1" y="1" width="14" height="14" rx="4" fill="#7CCB9E"/>
<path d="M8.125 10.5508C8.43579 10.5508 8.68842 10.8025 8.68848 11.1133V11.6758C8.68848 11.9866 8.43583 12.2393 8.125 12.2393H7.5625C7.25175 12.2392 7 11.9866 7 11.6758V11.1133C7.00006 10.8025 7.25179 10.5509 7.5625 10.5508H8.125ZM8.23145 4C8.45737 4 8.64042 4.18327 8.64062 4.40918V9.32227C8.64062 9.54835 8.4575 9.73145 8.23145 9.73145H7.41211C7.18622 9.73125 7.00293 9.54823 7.00293 9.32227V4.40918C7.00314 4.18339 7.18635 4.00019 7.41211 4H8.23145Z" fill="white"/>
</svg>
