<svg xmlns="http://www.w3.org/2000/svg" width="14" height="14" viewBox="0 0 14 14" fill="none">
  <rect width="14" height="14" rx="4" fill="#FAC515"/>
  <path d="M6.125 9.55078C6.43579 9.55078 6.68842 9.80247 6.68848 10.1133V10.6758C6.68848 10.9866 6.43583 11.2393 6.125 11.2393H5.5625C5.25175 11.2392 5 10.9866 5 10.6758V10.1133C5.00006 9.80253 5.25179 9.55087 5.5625 9.55078H6.125ZM6.23145 3C6.45737 3 6.64042 3.18327 6.64062 3.40918V8.32227C6.64062 8.54835 6.4575 8.73145 6.23145 8.73145H5.41211C5.18622 8.73125 5.00293 8.54823 5.00293 8.32227V3.40918C5.00314 3.18339 5.18635 3.00019 5.41211 3H6.23145Z" fill="white"/>
  <path d="M9.125 9.55078C9.43579 9.55078 9.68842 9.80247 9.68848 10.1133V10.6758C9.68848 10.9866 9.43583 11.2393 9.125 11.2393H8.5625C8.25175 11.2392 8 10.9866 8 10.6758V10.1133C8.00006 9.80253 8.25179 9.55087 8.5625 9.55078H9.125ZM9.23145 3C9.45737 3 9.64042 3.18327 9.64062 3.40918V8.32227C9.64062 8.54835 9.4575 8.73145 9.23145 8.73145H8.41211C8.18622 8.73125 8.00293 8.54823 8.00293 8.32227V3.40918C8.00314 3.18339 8.18635 3.00019 8.41211 3H9.23145Z" fill="white"/>
</svg>
