<svg width="14" height="14" viewBox="0 0 14 14" fill="none" xmlns="http://www.w3.org/2000/svg">
<path d="M8.35553 10.0137H3.51641C2.30138 10.0137 1.31641 9.0287 1.31641 7.81367V6.21367C1.31641 4.99865 2.30138 4.01367 3.51641 4.01367H8.35553" stroke="#3F3F51" style="stroke:#3F3F51;stroke:color(display-p3 0.2485 0.2485 0.3162);stroke-opacity:1;" stroke-width="1.1" stroke-linecap="round" stroke-linejoin="round"/>
<path d="M12.1 2.55C12.1 2.24624 11.8538 2 11.55 2C11.2462 2 11 2.24624 11 2.55V11.45C11 11.7538 11.2462 12 11.55 12C11.8538 12 12.1 11.7538 12.1 11.45V2.55Z" fill="#3F3F51" style="fill:#3F3F51;fill:color(display-p3 0.2485 0.2485 0.3162);fill-opacity:1;"/>
<path d="M12.45 2H10.55C10.2462 2 10 2.24624 10 2.55C10 2.85376 10.2462 3.1 10.55 3.1H12.45C12.7538 3.1 13 2.85376 13 2.55C13 2.24624 12.7538 2 12.45 2Z" fill="#3F3F51" style="fill:#3F3F51;fill:color(display-p3 0.2485 0.2485 0.3162);fill-opacity:1;"/>
<path d="M12.45 11H10.55C10.2462 11 10 11.2462 10 11.55C10 11.8538 10.2462 12.1 10.55 12.1H12.45C12.7538 12.1 13 11.8538 13 11.55C13 11.2462 12.7538 11 12.45 11Z" fill="#3F3F51" style="fill:#3F3F51;fill:color(display-p3 0.2485 0.2485 0.3162);fill-opacity:1;"/>
</svg>
