<svg width="14" height="14" viewBox="0 0 14 14" fill="none" xmlns="http://www.w3.org/2000/svg">
<g clip-path="url(#clip0_524_67865)">
<path fill-rule="evenodd" clip-rule="evenodd" d="M11.7992 3.34489C12.1973 3.56665 12.4677 3.92875 12.5832 4.33492C12.6987 4.74109 12.6593 5.19132 12.4375 5.58934C12.2882 5.8573 12.0672 6.07834 11.7992 6.22763L7.83403 8.43691C7.33478 8.71508 6.72712 8.71508 6.22787 8.43691L2.26266 6.22763C1.86464 6.00587 1.59418 5.64377 1.47868 5.2376C1.36317 4.83143 1.40261 4.3812 1.62437 3.98318C1.77367 3.71522 1.99471 3.49418 2.26266 3.34489L6.22787 1.13561C6.72712 0.857443 7.33478 0.857443 7.83403 1.13561L11.7992 3.34489Z" stroke="#3F3F51" style="stroke:#3F3F51;stroke:color(display-p3 0.2485 0.2485 0.3162);stroke-opacity:1;" stroke-width="1.1"/>
<path d="M1.63672 8.21094L5.95792 10.5735C6.6145 10.9325 7.40853 10.9331 8.06568 10.5752L12.406 8.21094" stroke="#3F3F51" style="stroke:#3F3F51;stroke:color(display-p3 0.2485 0.2485 0.3162);stroke-opacity:1;" stroke-width="1.1" stroke-linecap="round" stroke-linejoin="round"/>
<path d="M1.61719 10.3555L5.93839 12.7181C6.59497 13.077 7.389 13.0777 8.04615 12.7197L12.3865 10.3555" stroke="#3F3F51" style="stroke:#3F3F51;stroke:color(display-p3 0.2485 0.2485 0.3162);stroke-opacity:1;" stroke-width="1.1" stroke-linecap="round" stroke-linejoin="round"/>
</g>
<defs>
<clipPath id="clip0_524_67865">
<rect width="14" height="14" fill="white" style="fill:white;fill-opacity:1;"/>
</clipPath>
</defs>
</svg>
