<svg width="14" height="14" viewBox="0 0 14 14" fill="none" xmlns="http://www.w3.org/2000/svg">
<g clip-path="url(#clip0_730_11312)">
<path fill-rule="evenodd" clip-rule="evenodd" d="M11.7337 1.6007C11.9274 1.61399 12.0836 1.7645 12.1041 1.9576C12.3161 4.07184 12.0005 5.83022 11.1512 7.23339C10.8949 7.65674 10.5907 8.04121 10.2384 8.38681C10.1743 9.41272 9.97939 10.2275 9.65435 10.8322C9.28046 11.5278 8.58521 12.223 7.5686 12.9179C7.70133 11.9901 7.74642 11.2664 7.70386 10.747C7.68043 10.4608 7.60229 10.2186 7.46946 10.0202C7.22874 10.1031 6.97784 10.1776 6.71764 10.2446C6.09131 9.7759 5.5044 9.26784 4.95692 8.72036C4.40944 8.17288 3.90754 7.59214 3.45121 6.97813C3.53136 6.7244 3.61543 6.48011 3.70342 6.24528C3.48589 6.06906 3.22405 5.96832 2.91933 5.94336C2.39988 5.90081 1.67622 5.9459 0.748348 6.07863C1.44325 5.06201 2.1385 4.36676 2.8341 3.99288C3.4511 3.66124 4.28673 3.46508 5.34099 3.40441C5.67615 3.04048 6.03691 2.7413 6.42448 2.50671C7.65386 1.7626 9.42359 1.46055 11.7337 1.6007Z" stroke="#3F3F51" stroke-width="1.1" stroke-linejoin="round"/>
<path fill-rule="evenodd" clip-rule="evenodd" d="M1.95322 11.7034C2.34374 12.094 3.71178 11.3591 4.09243 10.9784C4.47307 10.5978 4.46506 9.97263 4.07454 9.58211C3.68401 9.19158 3.05886 9.18357 2.67821 9.56422C2.29757 9.94486 1.56269 11.3129 1.95322 11.7034Z" fill="#3F3F51"/>
<path d="M7.81203 5.98042C8.2416 6.41 8.93808 6.41 9.36766 5.98042C9.79724 5.55085 9.79724 4.85437 9.36766 4.42479C8.93808 3.99521 8.2416 3.99521 7.81203 4.42479C7.38245 4.85437 7.38245 5.55085 7.81203 5.98042Z" fill="#3F3F51"/>
</g>
<defs>
<clipPath id="clip0_730_11312">
<rect width="14" height="14" fill="white"/>
</clipPath>
</defs>
</svg>
