<svg width="14" height="14" viewBox="0 0 14 14" fill="none" xmlns="http://www.w3.org/2000/svg">
<path fill-rule="evenodd" clip-rule="evenodd" d="M10.8008 1.40039C11.2564 1.40039 11.6689 1.58507 11.9675 1.88366C12.2661 2.18226 12.4508 2.59476 12.4508 3.05039V8.69101C12.4508 9.14664 12.2661 9.55914 11.9675 9.85773C11.6689 10.1563 11.2564 10.341 10.8008 10.341H3.20078C2.74515 10.341 2.33265 10.1563 2.03406 9.85773C1.73546 9.55914 1.55078 9.14664 1.55078 8.69101V3.05039C1.55078 2.59476 1.73546 2.18226 2.03406 1.88366C2.33265 1.58507 2.74515 1.40039 3.20078 1.40039H10.8008Z" stroke="#3F3F51" style="stroke:#3F3F51;stroke:color(display-p3 0.2485 0.2485 0.3162);stroke-opacity:1;" stroke-width="1.1"/>
<path fill-rule="evenodd" clip-rule="evenodd" d="M6.88845 4.53479L8.14497 5.39609C8.4183 5.58344 8.48799 5.95689 8.30064 6.23022C8.25879 6.29126 8.20602 6.34404 8.14497 6.38588L6.88845 7.24718C6.61513 7.43453 6.24168 7.36484 6.05432 7.09151C5.98586 6.99163 5.94922 6.87337 5.94922 6.75228V5.02969C5.94922 4.69832 6.21785 4.42969 6.54922 4.42969C6.67031 4.42969 6.78857 4.46633 6.88845 4.53479Z" fill="#3F3F51" style="fill:#3F3F51;fill:color(display-p3 0.2485 0.2485 0.3162);fill-opacity:1;"/>
<path fill-rule="evenodd" clip-rule="evenodd" d="M10.0176 12.467C10.0176 12.7707 9.77133 13.017 9.46758 13.017H4.56758C4.26382 13.017 4.01758 12.7707 4.01758 12.467C4.01758 12.1632 4.26382 11.917 4.56758 11.917H9.46758C9.77133 11.917 10.0176 12.1632 10.0176 12.467Z" fill="#3F3F51" style="fill:#3F3F51;fill:color(display-p3 0.2485 0.2485 0.3162);fill-opacity:1;"/>
</svg>
