<svg width="16" height="16" viewBox="0 0 16 16" fill="none" xmlns="http://www.w3.org/2000/svg">
<path fill-rule="evenodd" clip-rule="evenodd" d="M14.3164 8.00105C14.3164 8.32662 14.2322 8.65219 14.0638 8.94391L11.8011 12.863C11.4643 13.4464 10.8417 13.8058 10.168 13.8058H5.64271C5.30586 13.8058 4.9818 13.716 4.69985 13.5532C4.4179 13.3904 4.17806 13.1547 4.00963 12.863L1.74697 8.94391C1.57854 8.65219 1.49433 8.32662 1.49433 8.00105C1.49433 7.67548 1.57854 7.34991 1.74697 7.05819L4.00963 3.13915C4.17806 2.84743 4.4179 2.61171 4.69985 2.44893C4.9818 2.28614 5.30586 2.19629 5.64271 2.19629H10.168C10.8417 2.19629 11.4643 2.5557 11.8011 3.13915L14.0638 7.05819C14.2322 7.34991 14.3164 7.67548 14.3164 8.00105Z" stroke="#3F3F51" style="stroke:#3F3F51;stroke:color(display-p3 0.2485 0.2485 0.3162);stroke-opacity:1;" stroke-width="1.1"/>
<path d="M7.99894 9.65706C8.91415 9.65706 9.65608 8.91513 9.65608 7.99992C9.65608 7.0847 8.91415 6.34277 7.99894 6.34277C7.08372 6.34277 6.3418 7.0847 6.3418 7.99992C6.3418 8.91513 7.08372 9.65706 7.99894 9.65706Z" stroke="#3F3F51" style="stroke:#3F3F51;stroke:color(display-p3 0.2485 0.2485 0.3162);stroke-opacity:1;" stroke-width="1.1"/>
</svg>
