<svg width="14" height="14" viewBox="0 0 14 14" fill="none" xmlns="http://www.w3.org/2000/svg">
<g clip-path="url(#clip0_449_47685)">
<path fill-rule="evenodd" clip-rule="evenodd" d="M13.0283 6.99975C13.0283 7.30588 12.9491 7.61201 12.7908 7.88632L10.6632 11.5714C10.3465 12.12 9.7611 12.4579 9.12762 12.4579H4.87248C4.55574 12.4579 4.25103 12.3735 3.98592 12.2204C3.7208 12.0673 3.49528 11.8457 3.33691 11.5714L1.20934 7.88632C1.05097 7.61201 0.971784 7.30588 0.971784 6.99975C0.971784 6.69362 1.05097 6.38749 1.20934 6.11319L3.33691 2.42813C3.49528 2.15383 3.7208 1.93218 3.98592 1.77912C4.25103 1.62605 4.55574 1.54156 4.87248 1.54156L9.12762 1.54156C9.7611 1.54156 10.3465 1.87952 10.6632 2.42813L12.7908 6.11319C12.9491 6.38749 13.0283 6.69362 13.0283 6.99975Z" stroke="#0B0B0F" stroke-width="1.1"/>
<path d="M7.00004 8.80328C7.99604 8.80328 8.80346 7.99586 8.80346 6.99986C8.80346 6.00386 7.99604 5.19644 7.00004 5.19644C6.00404 5.19644 5.19662 6.00386 5.19662 6.99986C5.19662 7.99586 6.00404 8.80328 7.00004 8.80328Z" stroke="#0B0B0F" stroke-width="1.1"/>
</g>
<defs>
<clipPath id="clip0_449_47685">
<rect width="14" height="14" fill="white"/>
</clipPath>
</defs>
</svg>
