<svg width="16" height="16" viewBox="0 0 16 16" fill="none" xmlns="http://www.w3.org/2000/svg">
<path fill-rule="evenodd" clip-rule="evenodd" d="M8.91462 3.01855C9.43535 3.01855 9.90677 3.22962 10.248 3.57087C10.5893 3.91211 10.8003 4.38354 10.8003 4.90427V11.3507C10.8003 11.8714 10.5893 12.3428 10.248 12.6841C9.90677 13.0253 9.43535 13.2364 8.91462 13.2364H2.51462C1.99389 13.2364 1.52247 13.0253 1.18122 12.6841C0.839972 12.3428 0.628906 11.8714 0.628906 11.3507V4.90427C0.628906 4.38354 0.839972 3.91211 1.18122 3.57087C1.52247 3.22962 1.99389 3.01855 2.51462 3.01855H8.91462Z" stroke="white" style="stroke:white;stroke-opacity:1;" stroke-width="1.1"/>
<path fill-rule="evenodd" clip-rule="evenodd" d="M5.34489 6.47949L6.78092 7.46383C7.09329 7.67795 7.17294 8.10475 6.95882 8.41712C6.911 8.48689 6.85068 8.5472 6.78092 8.59502L5.34489 9.57936C5.03252 9.79348 4.60572 9.71383 4.3916 9.40146C4.31336 9.28731 4.27148 9.15216 4.27148 9.01377V7.04509C4.27148 6.66638 4.57849 6.35938 4.9572 6.35938C5.09559 6.35938 5.23074 6.40125 5.34489 6.47949Z" fill="white" style="fill:white;fill-opacity:1;"/>
<path fill-rule="evenodd" clip-rule="evenodd" d="M13.7269 4.48789C13.984 4.33364 14.2793 4.2982 14.5488 4.36559C14.8184 4.43298 15.0622 4.6032 15.2165 4.86029C15.3177 5.02903 15.3712 5.22211 15.3712 5.41889V10.8384C15.3712 11.1382 15.2497 11.4096 15.0532 11.6061C14.8567 11.8026 14.5853 11.9241 14.2855 11.9241C14.0887 11.9241 13.8956 11.8706 13.7269 11.7694L10.9141 10.0817V6.17559L13.7269 4.48789Z" stroke="white" style="stroke:white;stroke-opacity:1;" stroke-width="1.1"/>
</svg>
