<svg width="16" height="16" viewBox="0 0 16 16" fill="none" xmlns="http://www.w3.org/2000/svg">
<path d="M9.81817 2.5791H11.0486C12.3678 2.5791 13.4372 3.64418 13.4372 4.95801V6.19815M13.4372 9.8172V11.0573C13.4372 12.3712 12.3678 13.4362 11.0486 13.4362H9.81817M6.19913 13.4362H4.96865C3.64948 13.4362 2.58008 12.3712 2.58008 11.0573V9.8172M2.58008 6.19815V4.95801C2.58008 3.64418 3.64948 2.5791 4.96865 2.5791H6.19913" stroke="white" style="stroke:white;stroke-opacity:1;" stroke-width="1.1" stroke-linecap="round"/>
<path d="M8.80056 5.81836H7.20056C6.38002 5.81836 5.71484 6.48354 5.71484 7.30407V8.90407C5.71484 9.72461 6.38002 10.3898 7.20056 10.3898H8.80056C9.6211 10.3898 10.2863 9.72461 10.2863 8.90407V7.30407C10.2863 6.48354 9.6211 5.81836 8.80056 5.81836Z" fill="white" style="fill:white;fill-opacity:1;"/>
</svg>
