<svg width="16" height="16" viewBox="0 0 16 16" fill="none" xmlns="http://www.w3.org/2000/svg">
<path d="M10.5281 3H5.47191C4.10671 3 3 4.02504 3 5.2895V11.7105C3 12.975 4.10671 14 5.47191 14H10.5281C11.8933 14 13 12.975 13 11.7105V5.2895C13 4.02504 11.8933 3 10.5281 3Z" stroke="#3F3F51" style="stroke:#3F3F51;stroke:color(display-p3 0.2485 0.2485 0.3162);stroke-opacity:1;" stroke-width="1.1"/>
<path d="M9.63783 1.2373H6.42355C5.53595 1.2373 4.81641 1.95685 4.81641 2.84445C4.81641 3.73205 5.53595 4.45159 6.42355 4.45159H9.63783C10.5254 4.45159 11.245 3.73205 11.245 2.84445C11.245 1.95685 10.5254 1.2373 9.63783 1.2373Z" fill="white" style="fill:white;fill-opacity:1;"/>
<path d="M9.63783 1.2373C10.5254 1.2373 11.245 1.95685 11.245 2.84445C11.245 3.73205 10.5254 4.45159 9.63783 4.45159H6.42355C5.53595 4.45159 4.81641 3.73205 4.81641 2.84445C4.81641 1.95685 5.53595 1.2373 6.42355 1.2373H9.63783ZM9.63783 2.41588H6.42355C6.18686 2.41588 5.99498 2.60775 5.99498 2.84445C5.99498 3.08114 6.18686 3.27302 6.42355 3.27302H9.63783C9.87453 3.27302 10.0664 3.08114 10.0664 2.84445C10.0664 2.60775 9.87453 2.41588 9.63783 2.41588Z" fill="#3F3F51" style="fill:#3F3F51;fill:color(display-p3 0.2485 0.2485 0.3162);fill-opacity:1;"/>
<path d="M7.81641 6.75586H5.78069C5.45524 6.75586 5.19141 7.0021 5.19141 7.30586C5.19141 7.60962 5.45524 7.85586 5.78069 7.85586H7.81641C8.14186 7.85586 8.40569 7.60962 8.40569 7.30586C8.40569 7.0021 8.14186 6.75586 7.81641 6.75586Z" fill="#3F3F51" style="fill:#3F3F51;fill:color(display-p3 0.2485 0.2485 0.3162);fill-opacity:1;"/>
<path d="M9.95926 8.89844H5.78069C5.45524 8.89844 5.19141 9.14468 5.19141 9.44844C5.19141 9.75219 5.45524 9.99844 5.78069 9.99844H9.95926C10.2847 9.99844 10.5485 9.75219 10.5485 9.44844C10.5485 9.14468 10.2847 8.89844 9.95926 8.89844Z" fill="#3F3F51" style="fill:#3F3F51;fill:color(display-p3 0.2485 0.2485 0.3162);fill-opacity:1;"/>
</svg>
