<svg width="16" height="16" viewBox="0 0 16 16" fill="none" xmlns="http://www.w3.org/2000/svg">
<path d="M9.65625 1.97901V4.56059C9.65625 4.91063 9.65625 5.08565 9.72437 5.21934C9.78429 5.33694 9.87991 5.43255 9.99751 5.49247C10.1312 5.56059 10.3062 5.56059 10.6563 5.56059H13.2379M10.7889 8.02038L7.60236 10.9448L6.14311 9.40768M13.4062 6.80319V11.3106C13.4062 12.3607 13.4062 12.8857 13.2019 13.2867C13.0221 13.6396 12.7353 13.9264 12.3825 14.1062C11.9814 14.3106 11.4563 14.3106 10.4062 14.3106H6.40625C5.35615 14.3106 4.8311 14.3106 4.43001 14.1062C4.07721 13.9264 3.79037 13.6396 3.61061 13.2867C3.40625 12.8857 3.40625 12.3607 3.40625 11.3106V4.81055C3.40625 3.76045 3.40625 3.2354 3.61061 2.83432C3.79037 2.48152 4.07721 2.19468 4.43001 2.01491C4.8311 1.81055 5.35615 1.81055 6.40625 1.81055H8.4136C8.87222 1.81055 9.10151 1.81055 9.31731 1.86235C9.50863 1.90828 9.69152 1.98404 9.85928 2.08685C10.0485 2.2028 10.2106 2.36495 10.5349 2.68923L12.5275 4.68187C12.8518 5.00616 13.014 5.1683 13.13 5.35751C13.2327 5.52528 13.3085 5.70817 13.3545 5.89949C13.4062 6.11528 13.4062 6.34459 13.4062 6.80319Z" stroke="#3F3F51" style="stroke:#3F3F51;stroke:color(display-p3 0.2485 0.2485 0.3162);stroke-opacity:1;" stroke-width="1.1" stroke-linecap="round" stroke-linejoin="round"/>
</svg>
