<svg width="16" height="16" viewBox="0 0 16 16" fill="none" xmlns="http://www.w3.org/2000/svg">
<g clip-path="url(#clip0_507_28897)">
<path d="M9.22852 13.625C9.57369 13.625 9.85352 13.9048 9.85352 14.25C9.85352 14.5952 9.57369 14.875 9.22852 14.875H6.10352C5.75834 14.875 5.47852 14.5952 5.47852 14.25C5.47852 13.9048 5.75834 13.625 6.10352 13.625H9.22852ZM7.66602 0.8125C10.6041 0.8125 12.9784 3.25661 12.9785 6.2627C12.9785 7.56688 12.2378 8.92821 10.8047 10.3643C10.3956 10.7743 10.166 11.33 10.166 11.9092V12.0537C10.1658 12.5724 9.75027 13 9.22852 13H6.10352C5.58176 13 5.16623 12.5724 5.16602 12.0537V11.9092C5.16601 11.33 4.93638 10.7743 4.52734 10.3643C3.09426 8.92821 2.35352 7.56688 2.35352 6.2627C2.35361 3.25661 4.72794 0.8125 7.66602 0.8125ZM7.66602 2.0625C5.42653 2.0625 3.60361 3.93899 3.60352 6.2627C3.60352 7.17817 4.1908 8.25761 5.41211 9.48145C6.0174 10.0882 6.37262 10.8977 6.41211 11.75H8.91992C8.95941 10.8977 9.31463 10.0882 9.91992 9.48145C11.1412 8.25761 11.7285 7.17817 11.7285 6.2627C11.7284 3.93899 9.9055 2.0625 7.66602 2.0625Z" fill="#3F3F51" style="fill:#3F3F51;fill:color(display-p3 0.2485 0.2485 0.3162);fill-opacity:1;"/>
</g>
<defs>
<clipPath id="clip0_507_28897">
<rect width="15" height="15" fill="white" style="fill:white;fill-opacity:1;" transform="translate(0.166016 0.5)"/>
</clipPath>
</defs>
</svg>
