<svg width="282" height="169" viewBox="0 0 282 169" fill="none" xmlns="http://www.w3.org/2000/svg">
<rect x="19.5" y="0.5" width="176.469" height="167.047" rx="4.42188" fill="white" stroke="#F0F2FA"/>
<rect x="19.4219" y="25.3125" width="177.047" height="0.703125" fill="#F0F2FA"/>
<rect x="43" y="54" width="145" height="0.5" fill="#F0F2FA"/>
<rect x="43" y="82" width="145" height="0.5" fill="#F0F2FA"/>
<rect x="43" y="110" width="145" height="0.5" fill="#F0F2FA"/>
<rect x="43" y="138" width="145" height="0.5" fill="#F0F2FA"/>
<path d="M30.6938 14.8623C30.6938 14.7393 30.6748 14.6294 30.6367 14.5327C30.6016 14.4331 30.5356 14.3438 30.439 14.2646C30.3452 14.1826 30.2119 14.1035 30.0391 14.0273C29.8691 13.9482 29.6494 13.8662 29.3799 13.7812C29.0811 13.6875 28.8027 13.582 28.5449 13.4648C28.2871 13.3477 28.0601 13.2114 27.8638 13.0562C27.6704 12.9009 27.5195 12.7222 27.4111 12.52C27.3027 12.3149 27.2485 12.0776 27.2485 11.8081C27.2485 11.5444 27.3042 11.3042 27.4155 11.0874C27.5298 10.8706 27.6909 10.6846 27.8989 10.5293C28.1069 10.3711 28.3516 10.2495 28.6328 10.1646C28.917 10.0796 29.2305 10.0371 29.5732 10.0371C30.0479 10.0371 30.458 10.1235 30.8037 10.2964C31.1523 10.4692 31.4219 10.7036 31.6123 10.9995C31.8027 11.2954 31.8979 11.6279 31.8979 11.9971H30.6938C30.6938 11.7979 30.6514 11.6221 30.5664 11.4697C30.4844 11.3174 30.3584 11.1973 30.1885 11.1094C30.0215 11.0215 29.8105 10.9775 29.5557 10.9775C29.3096 10.9775 29.1045 11.0142 28.9404 11.0874C28.7793 11.1606 28.6577 11.2603 28.5757 11.3862C28.4966 11.5122 28.457 11.6528 28.457 11.8081C28.457 11.9253 28.4849 12.0308 28.5405 12.1245C28.5962 12.2153 28.6797 12.3018 28.791 12.3838C28.9023 12.4629 29.04 12.5376 29.2041 12.6079C29.3711 12.6753 29.5645 12.7427 29.7842 12.8101C30.1357 12.9155 30.4434 13.0327 30.707 13.1616C30.9736 13.2905 31.1948 13.437 31.3706 13.6011C31.5493 13.7651 31.6826 13.9497 31.7705 14.1548C31.8613 14.3599 31.9067 14.5928 31.9067 14.8535C31.9067 15.1289 31.8525 15.375 31.7441 15.5918C31.6357 15.8086 31.4805 15.9932 31.2783 16.1455C31.0762 16.2979 30.833 16.4136 30.5488 16.4927C30.2676 16.5718 29.9526 16.6113 29.604 16.6113C29.2935 16.6113 28.9858 16.5703 28.6812 16.4883C28.3794 16.4033 28.1055 16.2773 27.8594 16.1104C27.6133 15.9404 27.417 15.7266 27.2705 15.4688C27.124 15.208 27.0508 14.9033 27.0508 14.5547H28.2637C28.2637 14.7568 28.2959 14.9297 28.3604 15.0732C28.4277 15.2139 28.5215 15.3296 28.6416 15.4204C28.7646 15.5083 28.9082 15.5728 29.0723 15.6138C29.2363 15.6548 29.4136 15.6753 29.604 15.6753C29.8501 15.6753 30.0522 15.6416 30.2104 15.5742C30.3716 15.5039 30.4917 15.4072 30.5708 15.2842C30.6528 15.1611 30.6938 15.0205 30.6938 14.8623ZM34.7287 15.6973C34.8927 15.6973 35.0392 15.665 35.1681 15.6006C35.297 15.5361 35.3996 15.4453 35.4757 15.3281C35.5548 15.2109 35.5973 15.0747 35.6032 14.9194H36.6974C36.6916 15.2417 36.6007 15.5303 36.4249 15.7852C36.2492 16.04 36.0148 16.2422 35.7218 16.3916C35.4318 16.5381 35.1066 16.6113 34.7462 16.6113C34.38 16.6113 34.0607 16.5498 33.7882 16.4268C33.5158 16.3037 33.2887 16.1323 33.1071 15.9126C32.9284 15.6929 32.7936 15.438 32.7028 15.1479C32.6149 14.8579 32.5709 14.5474 32.5709 14.2163V14.0757C32.5709 13.7446 32.6149 13.4341 32.7028 13.144C32.7936 12.854 32.9284 12.5991 33.1071 12.3794C33.2887 12.1597 33.5158 11.9883 33.7882 11.8652C34.0607 11.7422 34.3786 11.6807 34.7418 11.6807C35.1256 11.6807 35.4625 11.7554 35.7526 11.9048C36.0456 12.0542 36.2741 12.2651 36.4381 12.5376C36.6051 12.8101 36.6916 13.1309 36.6974 13.5H35.6032C35.5973 13.3301 35.5592 13.1777 35.4889 13.043C35.4186 12.9082 35.319 12.7998 35.1901 12.7178C35.0612 12.6357 34.9044 12.5947 34.7199 12.5947C34.5236 12.5947 34.3595 12.6357 34.2277 12.7178C34.0988 12.7998 33.9977 12.9126 33.9245 13.0562C33.8541 13.1968 33.8043 13.355 33.775 13.5308C33.7487 13.7036 33.7355 13.8853 33.7355 14.0757V14.2163C33.7355 14.4097 33.7487 14.5942 33.775 14.77C33.8043 14.9458 33.8541 15.104 33.9245 15.2446C33.9977 15.3823 34.0988 15.4922 34.2277 15.5742C34.3595 15.6562 34.5265 15.6973 34.7287 15.6973ZM38.658 12.7397V16.5234H37.4978V11.7686H38.5965L38.658 12.7397ZM40.1038 11.7378L40.0862 12.8188C40.0218 12.8071 39.9485 12.7983 39.8665 12.7925C39.7874 12.7866 39.7127 12.7837 39.6424 12.7837C39.4637 12.7837 39.3069 12.8086 39.1722 12.8584C39.0374 12.9053 38.9246 12.9741 38.8338 13.0649C38.7459 13.1558 38.6785 13.2671 38.6316 13.3989C38.5848 13.5278 38.5584 13.6743 38.5525 13.8384L38.302 13.8076C38.302 13.5059 38.3328 13.2261 38.3943 12.9683C38.4559 12.7104 38.5452 12.4849 38.6624 12.2915C38.7796 12.0981 38.9261 11.9487 39.1019 11.8433C39.2806 11.7349 39.4856 11.6807 39.7171 11.6807C39.7815 11.6807 39.8504 11.6865 39.9236 11.6982C39.9998 11.707 40.0599 11.7202 40.1038 11.7378ZM42.8159 16.6113C42.4555 16.6113 42.1318 16.5527 41.8447 16.4355C41.5576 16.3184 41.3129 16.1558 41.1108 15.9478C40.9116 15.7368 40.7578 15.4922 40.6494 15.2139C40.5439 14.9326 40.4912 14.6309 40.4912 14.3086V14.1328C40.4912 13.7666 40.5439 13.4341 40.6494 13.1353C40.7548 12.8335 40.9042 12.5742 41.0976 12.3574C41.291 12.1406 41.5224 11.9736 41.7919 11.8564C42.0615 11.7393 42.3588 11.6807 42.684 11.6807C43.0209 11.6807 43.3183 11.7378 43.5761 11.8521C43.8339 11.9634 44.0493 12.1216 44.2221 12.3267C44.395 12.5317 44.5253 12.7778 44.6132 13.0649C44.7011 13.3491 44.7451 13.6641 44.7451 14.0098V14.4976H41.0185V13.6978H43.6025V13.6099C43.5966 13.4253 43.5615 13.2568 43.497 13.1045C43.4326 12.9492 43.333 12.8262 43.1982 12.7354C43.0634 12.6416 42.8891 12.5947 42.6752 12.5947C42.5024 12.5947 42.3515 12.6328 42.2226 12.709C42.0966 12.7822 41.9912 12.8877 41.9062 13.0254C41.8242 13.1602 41.7626 13.3213 41.7216 13.5088C41.6806 13.6963 41.6601 13.9043 41.6601 14.1328V14.3086C41.6601 14.5078 41.6865 14.6924 41.7392 14.8623C41.7949 15.0322 41.8754 15.1802 41.9809 15.3062C42.0893 15.4292 42.2182 15.5259 42.3676 15.5962C42.52 15.6636 42.6928 15.6973 42.8862 15.6973C43.1293 15.6973 43.3491 15.6504 43.5454 15.5566C43.7446 15.46 43.9174 15.3179 44.0639 15.1304L44.6484 15.7368C44.5488 15.8833 44.414 16.0239 44.2441 16.1587C44.0771 16.2935 43.8749 16.4033 43.6376 16.4883C43.4003 16.5703 43.1264 16.6113 42.8159 16.6113ZM47.6856 16.6113C47.3253 16.6113 47.0016 16.5527 46.7144 16.4355C46.4273 16.3184 46.1827 16.1558 45.9806 15.9478C45.7813 15.7368 45.6275 15.4922 45.5191 15.2139C45.4137 14.9326 45.3609 14.6309 45.3609 14.3086V14.1328C45.3609 13.7666 45.4137 13.4341 45.5191 13.1353C45.6246 12.8335 45.774 12.5742 45.9674 12.3574C46.1607 12.1406 46.3922 11.9736 46.6617 11.8564C46.9312 11.7393 47.2286 11.6807 47.5538 11.6807C47.8907 11.6807 48.1881 11.7378 48.4459 11.8521C48.7037 11.9634 48.919 12.1216 49.0919 12.3267C49.2647 12.5317 49.3951 12.7778 49.483 13.0649C49.5709 13.3491 49.6148 13.6641 49.6148 14.0098V14.4976H45.8883V13.6978H48.4723V13.6099C48.4664 13.4253 48.4312 13.2568 48.3668 13.1045C48.3023 12.9492 48.2027 12.8262 48.068 12.7354C47.9332 12.6416 47.7589 12.5947 47.545 12.5947C47.3722 12.5947 47.2213 12.6328 47.0924 12.709C46.9664 12.7822 46.8609 12.8877 46.776 13.0254C46.6939 13.1602 46.6324 13.3213 46.5914 13.5088C46.5504 13.6963 46.5299 13.9043 46.5299 14.1328V14.3086C46.5299 14.5078 46.5562 14.6924 46.609 14.8623C46.6646 15.0322 46.7452 15.1802 46.8507 15.3062C46.9591 15.4292 47.088 15.5259 47.2374 15.5962C47.3897 15.6636 47.5626 15.6973 47.7559 15.6973C47.9991 15.6973 48.2188 15.6504 48.4151 15.5566C48.6143 15.46 48.7872 15.3179 48.9337 15.1304L49.5182 15.7368C49.4185 15.8833 49.2838 16.0239 49.1139 16.1587C48.9469 16.2935 48.7447 16.4033 48.5074 16.4883C48.2701 16.5703 47.9962 16.6113 47.6856 16.6113ZM51.5579 12.7837V16.5234H50.3977V11.7686H51.4875L51.5579 12.7837ZM51.3733 13.9746H51.0305C51.0334 13.6289 51.0803 13.3154 51.1711 13.0342C51.262 12.7529 51.3894 12.5112 51.5535 12.3091C51.7204 12.1069 51.9182 11.9517 52.1467 11.8433C52.3752 11.7349 52.6301 11.6807 52.9114 11.6807C53.1399 11.6807 53.3464 11.7129 53.531 11.7773C53.7156 11.8418 53.8738 11.9443 54.0056 12.085C54.1404 12.2256 54.2429 12.4102 54.3132 12.6387C54.3865 12.8643 54.4231 13.1426 54.4231 13.4736V16.5234H53.2541V13.4648C53.2541 13.248 53.2219 13.0767 53.1575 12.9507C53.0959 12.8247 53.0051 12.7354 52.885 12.6826C52.7678 12.6299 52.6228 12.6035 52.4499 12.6035C52.2712 12.6035 52.1145 12.6401 51.9797 12.7134C51.8479 12.7837 51.7366 12.8818 51.6457 13.0078C51.5579 13.1338 51.4905 13.2788 51.4436 13.4429C51.3967 13.6069 51.3733 13.7842 51.3733 13.9746ZM57.8301 10.125H60.1548C60.6411 10.125 61.0586 10.1982 61.4073 10.3447C61.7559 10.4912 62.024 10.708 62.2115 10.9951C62.399 11.2822 62.4927 11.6353 62.4927 12.0542C62.4927 12.3853 62.4341 12.6724 62.3169 12.9155C62.1997 13.1587 62.0342 13.3623 61.8203 13.5264C61.6094 13.6904 61.3604 13.8193 61.0733 13.9131L60.6953 14.1064H58.6431L58.6343 13.1528H60.168C60.417 13.1528 60.6236 13.1089 60.7876 13.021C60.9517 12.9331 61.0747 12.8115 61.1568 12.6562C61.2417 12.501 61.2842 12.3237 61.2842 12.1245C61.2842 11.9106 61.2432 11.7261 61.1612 11.5708C61.0791 11.4126 60.9546 11.291 60.7876 11.2061C60.6206 11.1211 60.4097 11.0786 60.1548 11.0786H59.0386V16.5234H57.8301V10.125ZM61.4424 16.5234L59.9615 13.6582L61.2403 13.6538L62.7388 16.4619V16.5234H61.4424ZM65.6266 16.6113C65.2663 16.6113 64.9426 16.5527 64.6555 16.4355C64.3683 16.3184 64.1237 16.1558 63.9216 15.9478C63.7223 15.7368 63.5685 15.4922 63.4601 15.2139C63.3547 14.9326 63.3019 14.6309 63.3019 14.3086V14.1328C63.3019 13.7666 63.3547 13.4341 63.4601 13.1353C63.5656 12.8335 63.715 12.5742 63.9084 12.3574C64.1017 12.1406 64.3332 11.9736 64.6027 11.8564C64.8722 11.7393 65.1696 11.6807 65.4948 11.6807C65.8317 11.6807 66.1291 11.7378 66.3869 11.8521C66.6447 11.9634 66.86 12.1216 67.0329 12.3267C67.2057 12.5317 67.3361 12.7778 67.424 13.0649C67.5119 13.3491 67.5558 13.6641 67.5558 14.0098V14.4976H63.8293V13.6978H66.4133V13.6099C66.4074 13.4253 66.3722 13.2568 66.3078 13.1045C66.2433 12.9492 66.1437 12.8262 66.009 12.7354C65.8742 12.6416 65.6999 12.5947 65.486 12.5947C65.3132 12.5947 65.1623 12.6328 65.0334 12.709C64.9074 12.7822 64.8019 12.8877 64.717 13.0254C64.6349 13.1602 64.5734 13.3213 64.5324 13.5088C64.4914 13.6963 64.4709 13.9043 64.4709 14.1328V14.3086C64.4709 14.5078 64.4972 14.6924 64.55 14.8623C64.6056 15.0322 64.6862 15.1802 64.7917 15.3062C64.9001 15.4292 65.029 15.5259 65.1784 15.5962C65.3307 15.6636 65.5036 15.6973 65.697 15.6973C65.9401 15.6973 66.1598 15.6504 66.3561 15.5566C66.5554 15.46 66.7282 15.3179 66.8747 15.1304L67.4592 15.7368C67.3596 15.8833 67.2248 16.0239 67.0549 16.1587C66.8879 16.2935 66.6857 16.4033 66.4484 16.4883C66.2111 16.5703 65.9372 16.6113 65.6266 16.6113ZM70.3118 15.6973C70.4759 15.6973 70.6224 15.665 70.7513 15.6006C70.8802 15.5361 70.9827 15.4453 71.0589 15.3281C71.138 15.2109 71.1805 15.0747 71.1864 14.9194H72.2806C72.2747 15.2417 72.1839 15.5303 72.0081 15.7852C71.8324 16.04 71.598 16.2422 71.305 16.3916C71.015 16.5381 70.6898 16.6113 70.3294 16.6113C69.9632 16.6113 69.6439 16.5498 69.3714 16.4268C69.099 16.3037 68.8719 16.1323 68.6903 15.9126C68.5116 15.6929 68.3768 15.438 68.286 15.1479C68.1981 14.8579 68.1541 14.5474 68.1541 14.2163V14.0757C68.1541 13.7446 68.1981 13.4341 68.286 13.144C68.3768 12.854 68.5116 12.5991 68.6903 12.3794C68.8719 12.1597 69.099 11.9883 69.3714 11.8652C69.6439 11.7422 69.9618 11.6807 70.325 11.6807C70.7088 11.6807 71.0457 11.7554 71.3358 11.9048C71.6287 12.0542 71.8573 12.2651 72.0213 12.5376C72.1883 12.8101 72.2747 13.1309 72.2806 13.5H71.1864C71.1805 13.3301 71.1424 13.1777 71.0721 13.043C71.0018 12.9082 70.9022 12.7998 70.7733 12.7178C70.6444 12.6357 70.4876 12.5947 70.3031 12.5947C70.1068 12.5947 69.9427 12.6357 69.8109 12.7178C69.682 12.7998 69.5809 12.9126 69.5076 13.0562C69.4373 13.1968 69.3875 13.355 69.3582 13.5308C69.3319 13.7036 69.3187 13.8853 69.3187 14.0757V14.2163C69.3187 14.4097 69.3319 14.5942 69.3582 14.77C69.3875 14.9458 69.4373 15.104 69.5076 15.2446C69.5809 15.3823 69.682 15.4922 69.8109 15.5742C69.9427 15.6562 70.1097 15.6973 70.3118 15.6973ZM72.8745 14.1943V14.1021C72.8745 13.7534 72.9243 13.4326 73.0239 13.1396C73.1235 12.8438 73.2685 12.5874 73.459 12.3706C73.6494 12.1538 73.8823 11.9854 74.1577 11.8652C74.4331 11.7422 74.7466 11.6807 75.0981 11.6807C75.4555 11.6807 75.772 11.7422 76.0473 11.8652C76.3257 11.9854 76.56 12.1538 76.7505 12.3706C76.9409 12.5874 77.0859 12.8438 77.1855 13.1396C77.2851 13.4326 77.3349 13.7534 77.3349 14.1021V14.1943C77.3349 14.54 77.2851 14.8608 77.1855 15.1567C77.0859 15.4497 76.9409 15.7061 76.7505 15.9258C76.56 16.1426 76.3271 16.311 76.0517 16.4312C75.7763 16.5513 75.4614 16.6113 75.1069 16.6113C74.7554 16.6113 74.4404 16.5513 74.1621 16.4312C73.8838 16.311 73.6494 16.1426 73.459 15.9258C73.2685 15.7061 73.1235 15.4497 73.0239 15.1567C72.9243 14.8608 72.8745 14.54 72.8745 14.1943ZM74.0346 14.1021V14.1943C74.0346 14.4023 74.0552 14.5972 74.0962 14.7788C74.1372 14.9604 74.2002 15.1201 74.2851 15.2578C74.3701 15.3955 74.48 15.5039 74.6147 15.583C74.7524 15.6592 74.9165 15.6973 75.1069 15.6973C75.2944 15.6973 75.4555 15.6592 75.5903 15.583C75.7251 15.5039 75.8349 15.3955 75.9199 15.2578C76.0078 15.1201 76.0722 14.9604 76.1133 14.7788C76.1543 14.5972 76.1748 14.4023 76.1748 14.1943V14.1021C76.1748 13.897 76.1543 13.7051 76.1133 13.5264C76.0722 13.3447 76.0078 13.1851 75.9199 13.0474C75.8349 12.9067 75.7236 12.7969 75.5859 12.7178C75.4512 12.6357 75.2886 12.5947 75.0981 12.5947C74.9106 12.5947 74.7495 12.6357 74.6147 12.7178C74.48 12.7969 74.3701 12.9067 74.2851 13.0474C74.2002 13.1851 74.1372 13.3447 74.0962 13.5264C74.0552 13.7051 74.0346 13.897 74.0346 14.1021ZM79.3658 12.7397V16.5234H78.2057V11.7686H79.3043L79.3658 12.7397ZM80.8116 11.7378L80.7941 12.8188C80.7296 12.8071 80.6564 12.7983 80.5743 12.7925C80.4952 12.7866 80.4205 12.7837 80.3502 12.7837C80.1715 12.7837 80.0148 12.8086 79.88 12.8584C79.7452 12.9053 79.6325 12.9741 79.5416 13.0649C79.4537 13.1558 79.3864 13.2671 79.3395 13.3989C79.2926 13.5278 79.2662 13.6743 79.2604 13.8384L79.0099 13.8076C79.0099 13.5059 79.0407 13.2261 79.1022 12.9683C79.1637 12.7104 79.2531 12.4849 79.3702 12.2915C79.4874 12.0981 79.6339 11.9487 79.8097 11.8433C79.9884 11.7349 80.1935 11.6807 80.4249 11.6807C80.4894 11.6807 80.5582 11.6865 80.6315 11.6982C80.7076 11.707 80.7677 11.7202 80.8116 11.7378ZM84.24 15.5127V9.77344H85.409V16.5234H84.3543L84.24 15.5127ZM81.1858 14.2031V14.1108C81.1858 13.7476 81.2268 13.418 81.3089 13.1221C81.3938 12.8232 81.5169 12.5669 81.678 12.353C81.8391 12.1392 82.034 11.9736 82.2625 11.8564C82.4939 11.7393 82.7561 11.6807 83.0491 11.6807C83.3333 11.6807 83.5808 11.7378 83.7918 11.8521C84.0056 11.9663 84.1873 12.1289 84.3367 12.3398C84.489 12.5508 84.6106 12.8013 84.7014 13.0913C84.7923 13.3784 84.8582 13.6948 84.8992 14.0405V14.291C84.8582 14.6279 84.7923 14.937 84.7014 15.2183C84.6106 15.4995 84.489 15.7456 84.3367 15.9565C84.1873 16.1646 84.0056 16.3257 83.7918 16.4399C83.5779 16.5542 83.3274 16.6113 83.0403 16.6113C82.7503 16.6113 82.4895 16.5513 82.2581 16.4312C82.0296 16.311 81.8347 16.1426 81.6736 15.9258C81.5154 15.709 81.3938 15.4541 81.3089 15.1611C81.2268 14.8682 81.1858 14.5488 81.1858 14.2031ZM82.3504 14.1108V14.2031C82.3504 14.4082 82.3679 14.6001 82.4031 14.7788C82.4383 14.9575 82.4954 15.1157 82.5745 15.2534C82.6536 15.3882 82.7547 15.4937 82.8777 15.5698C83.0037 15.646 83.156 15.6841 83.3347 15.6841C83.5633 15.6841 83.7508 15.6343 83.8972 15.5347C84.0467 15.4321 84.1624 15.293 84.2444 15.1172C84.3264 14.9385 84.3792 14.7378 84.4026 14.5151V13.8252C84.3909 13.6494 84.3601 13.4868 84.3103 13.3374C84.2635 13.188 84.1961 13.0591 84.1082 12.9507C84.0232 12.8423 83.9178 12.7573 83.7918 12.6958C83.6658 12.6343 83.5164 12.6035 83.3435 12.6035C83.1648 12.6035 83.0125 12.6431 82.8865 12.7222C82.7605 12.7983 82.658 12.9053 82.5789 13.043C82.4998 13.1807 82.4412 13.3403 82.4031 13.522C82.3679 13.7036 82.3504 13.8999 82.3504 14.1108ZM87.7167 11.7686V16.5234H86.5522V11.7686H87.7167ZM86.4731 10.5249C86.4731 10.3521 86.5317 10.2085 86.6489 10.0942C86.769 9.97998 86.9301 9.92285 87.1323 9.92285C87.3344 9.92285 87.4941 9.97998 87.6113 10.0942C87.7314 10.2085 87.7914 10.3521 87.7914 10.5249C87.7914 10.6948 87.7314 10.8369 87.6113 10.9512C87.4941 11.0654 87.3344 11.1226 87.1323 11.1226C86.9301 11.1226 86.769 11.0654 86.6489 10.9512C86.5317 10.8369 86.4731 10.6948 86.4731 10.5249ZM89.9893 12.7837V16.5234H88.8292V11.7686H89.919L89.9893 12.7837ZM89.8048 13.9746H89.462C89.4649 13.6289 89.5118 13.3154 89.6026 13.0342C89.6934 12.7529 89.8209 12.5112 89.9849 12.3091C90.1519 12.1069 90.3497 11.9517 90.5782 11.8433C90.8067 11.7349 91.0616 11.6807 91.3428 11.6807C91.5714 11.6807 91.7779 11.7129 91.9625 11.7773C92.147 11.8418 92.3052 11.9443 92.4371 12.085C92.5718 12.2256 92.6744 12.4102 92.7447 12.6387C92.8179 12.8643 92.8546 13.1426 92.8546 13.4736V16.5234H91.6856V13.4648C91.6856 13.248 91.6534 13.0767 91.5889 12.9507C91.5274 12.8247 91.4366 12.7354 91.3165 12.6826C91.1993 12.6299 91.0543 12.6035 90.8814 12.6035C90.7027 12.6035 90.546 12.6401 90.4112 12.7134C90.2794 12.7837 90.168 12.8818 90.0772 13.0078C89.9893 13.1338 89.9219 13.2788 89.8751 13.4429C89.8282 13.6069 89.8048 13.7842 89.8048 13.9746ZM96.9289 11.7686H97.9836V16.3784C97.9836 16.8091 97.8899 17.1738 97.7024 17.4727C97.5178 17.7744 97.2585 18.0029 96.9245 18.1582C96.5905 18.3164 96.2024 18.3955 95.76 18.3955C95.5695 18.3955 95.363 18.3691 95.1404 18.3164C94.9206 18.2637 94.7082 18.1802 94.5031 18.0659C94.301 17.9546 94.1325 17.8096 93.9978 17.6309L94.5207 16.9453C94.6789 17.1299 94.8576 17.269 95.0569 17.3628C95.2561 17.4595 95.4714 17.5078 95.7029 17.5078C95.9372 17.5078 96.1364 17.4639 96.3005 17.376C96.4675 17.291 96.5949 17.165 96.6828 16.998C96.7737 16.834 96.8191 16.6318 96.8191 16.3916V12.854L96.9289 11.7686ZM93.7165 14.2031V14.1108C93.7165 13.7476 93.7605 13.418 93.8484 13.1221C93.9362 12.8232 94.0622 12.5669 94.2263 12.353C94.3933 12.1392 94.594 11.9736 94.8283 11.8564C95.0656 11.7393 95.3322 11.6807 95.6281 11.6807C95.9416 11.6807 96.2053 11.7378 96.4192 11.8521C96.636 11.9663 96.8147 12.1289 96.9553 12.3398C97.0988 12.5508 97.2102 12.8013 97.2893 13.0913C97.3713 13.3784 97.4343 13.6948 97.4782 14.0405V14.291C97.4372 14.6279 97.3713 14.937 97.2805 15.2183C97.1926 15.4995 97.0754 15.7456 96.9289 15.9565C96.7824 16.1646 96.6008 16.3257 96.384 16.4399C96.1672 16.5542 95.9123 16.6113 95.6194 16.6113C95.3264 16.6113 95.0627 16.5513 94.8283 16.4312C94.594 16.311 94.3933 16.1426 94.2263 15.9258C94.0622 15.709 93.9362 15.4541 93.8484 15.1611C93.7605 14.8682 93.7165 14.5488 93.7165 14.2031ZM94.8767 14.1108V14.2031C94.8767 14.4082 94.8972 14.6001 94.9382 14.7788C94.9792 14.9575 95.0422 15.1157 95.1272 15.2534C95.2121 15.3882 95.3191 15.4937 95.448 15.5698C95.5769 15.646 95.7307 15.6841 95.9094 15.6841C96.1496 15.6841 96.3459 15.6343 96.4983 15.5347C96.6535 15.4321 96.7707 15.293 96.8498 15.1172C96.9319 14.9385 96.9846 14.7378 97.008 14.5151V13.8252C96.9934 13.6494 96.9612 13.4868 96.9113 13.3374C96.8645 13.188 96.7986 13.0591 96.7136 12.9507C96.6286 12.8423 96.5202 12.7573 96.3884 12.6958C96.2566 12.6343 96.0998 12.6035 95.9182 12.6035C95.7424 12.6035 95.5886 12.6431 95.4568 12.7222C95.3249 12.7983 95.2165 12.9053 95.1316 13.043C95.0466 13.1807 94.9821 13.3403 94.9382 13.522C94.8972 13.7036 94.8767 13.8999 94.8767 14.1108Z" fill="#AEAFC2"/>
<rect x="26.875" y="32.5234" width="14.625" height="14.625" rx="3.9375" fill="#F5F7FF"/>
<path d="M26.875 91.4609C26.875 89.2863 28.6379 87.5234 30.8125 87.5234H37.5625C39.7371 87.5234 41.5 89.2863 41.5 91.4609V98.2109C41.5 100.386 39.7371 102.148 37.5625 102.148H30.8125C28.6379 102.148 26.875 100.386 26.875 98.2109V91.4609Z" fill="#F5F7FF"/>
<path d="M26.875 119.461C26.875 117.286 28.6379 115.523 30.8125 115.523H37.5625C39.7371 115.523 41.5 117.286 41.5 119.461V126.211C41.5 128.386 39.7371 130.148 37.5625 130.148H30.8125C28.6379 130.148 26.875 128.386 26.875 126.211V119.461Z" fill="#F5F7FF"/>
<path d="M26.875 147.461C26.875 145.286 28.6379 143.523 30.8125 143.523H37.5625C39.7371 143.523 41.5 145.286 41.5 147.461V154.211C41.5 156.386 39.7371 158.148 37.5625 158.148H30.8125C28.6379 158.148 26.875 156.386 26.875 154.211V147.461Z" fill="#F5F7FF"/>
<rect x="46.7031" y="34.7344" width="62.0156" height="9.84375" rx="3.9375" fill="url(#paint0_linear_3_135308)"/>
<path d="M46.7031 94.6406C46.7031 92.466 48.466 90.7031 50.6406 90.7031H104.781C106.956 90.7031 108.719 92.466 108.719 94.6406V96.6094C108.719 98.784 106.956 100.547 104.781 100.547H50.6406C48.466 100.547 46.7031 98.784 46.7031 96.6094V94.6406Z" fill="url(#paint1_linear_3_135308)"/>
<path d="M46.7031 122.625C46.7031 120.45 48.466 118.688 50.6406 118.688H104.781C106.956 118.688 108.719 120.45 108.719 122.625V124.594C108.719 126.768 106.956 128.531 104.781 128.531H50.6406C48.466 128.531 46.7031 126.768 46.7031 124.594V122.625Z" fill="url(#paint2_linear_3_135308)"/>
<path d="M46.7031 150.609C46.7031 148.435 48.466 146.672 50.6406 146.672H104.781C106.956 146.672 108.719 148.435 108.719 150.609V152.578C108.719 154.753 106.956 156.516 104.781 156.516H50.6406C48.466 156.516 46.7031 154.753 46.7031 152.578V150.609Z" fill="url(#paint3_linear_3_135308)"/>
<rect x="163.521" y="34.918" width="22.2129" height="10.1768" rx="5.08842" fill="#EDEFFC"/>
<circle cx="169.006" cy="40.0078" r="4.53516" fill="white"/>
<rect x="163.521" y="90.5234" width="22.2129" height="10.1768" rx="5.08842" fill="#EDEFFC"/>
<circle cx="169.006" cy="95.6133" r="4.53516" fill="white"/>
<rect x="163.521" y="146.523" width="22.2129" height="10.1768" rx="5.08842" fill="#EDEFFC"/>
<circle cx="169.006" cy="151.613" r="4.53516" fill="white"/>
<rect x="163.521" y="118.523" width="22.2129" height="10.1768" rx="5.08842" fill="#EDEFFC"/>
<circle cx="169.006" cy="123.613" r="4.53516" fill="white"/>
<g filter="url(#filter0_dddd_3_135308)">
<rect x="5" y="50" width="204" height="35" rx="5" fill="white"/>
<rect x="5.5" y="50.5" width="203" height="34" rx="4.5" stroke="#F0F2FA"/>
</g>
<g clip-path="url(#clip0_3_135308)">
<path fill-rule="evenodd" clip-rule="evenodd" d="M32.9948 68.2037C32.9652 69.0141 32.7555 69.795 32.3616 70.5674C31.7665 71.7323 30.8008 72.6736 29.5493 73.3067L29.2591 73.4523L29.1723 73.2792C29.1257 73.1843 29.0368 73.0534 28.9796 72.9859C28.9203 72.9205 28.8716 72.8635 28.8716 72.8572C28.8716 72.8529 28.9097 72.8382 28.9584 72.8234C29.0982 72.7812 29.526 72.5849 29.7631 72.4541C31.0041 71.764 32.0122 70.6602 32.5861 69.3581C32.7852 68.9128 32.9059 68.4696 32.9694 67.9505C32.9969 67.7373 33.0075 67.845 32.9948 68.2037Z" fill="url(#paint4_linear_3_135308)"/>
<path d="M25.0701 58.0929C25.7499 58.3187 26.3873 58.8737 26.7135 59.5258C26.9422 59.9796 27.0586 60.5958 27.0099 61.0896C26.9655 61.537 26.8723 61.8662 26.6775 62.2524C26.3556 62.8961 25.9108 63.4195 24.9219 64.3228C23.9392 65.2218 23.3823 65.8169 23.0244 66.3466C22.7766 66.7117 22.4928 67.3258 22.3509 67.807C21.9041 69.3075 22.1222 70.7742 22.9545 71.84C23.0837 72.0046 23.3441 72.2768 23.3441 72.2452C23.3441 72.2367 23.3166 72.1755 23.2827 72.108C23.2107 71.9645 27.2789 74.0243 26.5102 73.9968C23.8482 73.9019 21.5547 72.3085 20.5085 69.8309C20.248 69.2125 20.0807 68.5372 20.0172 67.8534C19.9812 67.4609 20.0045 66.6463 20.0617 66.2685C20.2777 64.8419 20.9045 63.5714 21.8935 62.5458C22.2726 62.1533 22.6728 61.8304 23.4288 61.3091C23.9286 60.963 24.1595 60.7794 24.3734 60.5557C24.8371 60.0724 25.0595 59.5786 25.0616 59.0278C25.0616 58.6732 24.96 58.363 24.7609 58.1119L24.672 58L24.7757 58.0148C24.8329 58.0232 24.9642 58.0591 25.0701 58.0929Z" fill="url(#paint5_linear_3_135308)"/>
<path fill-rule="evenodd" clip-rule="evenodd" d="M23.3443 72.2451C23.3443 72.2366 23.3168 72.1754 23.2829 72.1079C23.2109 71.9644 23.1304 71.7175 23.0775 71.4706C23.016 71.192 23.0224 70.4639 23.0859 70.1642C23.2405 69.4573 23.5603 68.8516 24.0749 68.2881C24.2867 68.0559 24.6552 67.7605 25.0702 67.4861C25.3921 67.2751 25.515 67.178 25.6865 67.0092C25.966 66.7285 26.0762 66.5597 26.2498 66.127C26.3282 65.9308 26.4319 65.6944 26.4807 65.6016C26.5802 65.4116 26.7729 65.114 26.8534 65.0317L26.9063 64.9748L26.864 64.8946C26.667 64.5105 26.6776 63.9597 26.8894 63.5038C26.9699 63.3287 27.0461 63.2126 27.1753 63.067L27.2642 62.9678L27.3743 63.0015C27.7598 63.1134 28.0944 63.4468 28.2447 63.8689C28.2892 63.9955 28.3633 64.3269 28.3633 64.4028C28.3633 64.4218 28.3845 64.4239 28.7 64.464C29.473 64.5611 30.1401 64.8735 30.7881 65.4412C31.0719 65.6881 31.1799 65.8063 31.4467 66.1566C31.6458 66.4141 31.7072 66.528 31.7093 66.6272C31.7093 66.7475 31.5908 66.8488 31.451 66.8488C31.3811 66.8488 31.3811 66.8488 31.3875 66.9417C31.398 67.0662 31.3345 67.1865 31.1693 67.3469C30.8305 67.6782 30.3328 67.8787 29.7335 67.9251C29.3862 67.9504 29.2994 67.9736 29.1892 68.0665C29.0389 68.1952 29.0092 68.2775 29.0092 68.5688C29.0092 68.8621 29.0262 68.9254 29.2528 69.5079C29.4667 70.0608 29.4942 70.1853 29.4942 70.6053C29.4963 70.8965 29.4878 70.9852 29.4476 71.1392C29.3671 71.4642 29.1914 71.7829 28.9944 71.9686C28.897 72.0615 28.7212 72.1923 28.7106 72.1818C28.7064 72.1776 28.717 72.1079 28.7339 72.0277C28.7509 71.9475 28.7657 71.7808 28.7657 71.6563C28.7657 71.3081 28.6958 71.0189 28.537 70.7003C28.2596 70.1452 27.6962 69.6662 27.0503 69.434C26.9106 69.3834 26.5675 69.2969 26.5103 69.2969C26.4997 69.2969 26.5844 69.3454 26.7009 69.4045C27.0969 69.605 27.2981 69.74 27.5395 69.968C27.8466 70.255 28.0965 70.6665 28.1981 71.0485C28.2363 71.1962 28.2447 71.2849 28.2447 71.5444C28.2468 71.8652 28.2278 71.9918 28.1473 72.2388C28.1028 72.3738 27.9419 72.7094 27.8741 72.8043C27.8297 72.8634 27.8212 72.8951 27.8529 72.874C27.8911 72.8529 28.2257 72.9014 28.3527 72.95C28.52 73.0112 28.7191 73.2053 28.808 73.3953C28.8801 73.5493 28.8864 73.5915 28.8356 73.6126C28.196 73.8722 27.279 74.0242 26.5103 73.9967C23.8483 73.9018 23.3443 72.2767 23.3443 72.2451Z" fill="black"/>
<path d="M29.6021 65.58C29.3894 65.6802 29.3245 65.8851 29.438 66.0855C29.5798 66.326 29.8452 66.404 30.1045 66.2793C30.2929 66.188 30.3253 66.1078 30.2484 65.943C30.1086 65.6401 29.8168 65.4775 29.6021 65.58Z" fill="white"/>
</g>
<rect x="167" y="60" width="29" height="14" rx="7" fill="#0B0B0F"/>
<circle cx="189" cy="67" r="6" fill="white"/>
<path d="M38.2449 63.5486H39.3888L41.3018 68.8165L43.21 63.5486H44.3588L41.7585 70.5469H40.8404L38.2449 63.5486ZM37.6681 63.5486H38.788L38.9899 68.3887V70.5469H37.6681V63.5486ZM43.8108 63.5486H44.9356V70.5469H43.6138V68.3887L43.8108 63.5486ZM47.728 65.3462V70.5469H46.4542V65.3462H47.728ZM46.3677 63.986C46.3677 63.7969 46.4318 63.6399 46.56 63.5149C46.6914 63.39 46.8676 63.3275 47.0887 63.3275C47.3098 63.3275 47.4844 63.39 47.6126 63.5149C47.744 63.6399 47.8097 63.7969 47.8097 63.986C47.8097 64.1718 47.744 64.3272 47.6126 64.4522C47.4844 64.5772 47.3098 64.6397 47.0887 64.6397C46.8676 64.6397 46.6914 64.5772 46.56 64.4522C46.4318 64.3272 46.3677 64.1718 46.3677 63.986ZM50.381 66.4565V70.5469H49.112V65.3462H50.3041L50.381 66.4565ZM50.1791 67.7591H49.8042C49.8074 67.381 49.8587 67.0381 49.958 66.7305C50.0573 66.4229 50.1967 66.1585 50.3762 65.9374C50.5588 65.7163 50.7751 65.5465 51.025 65.4279C51.275 65.3094 51.5538 65.2501 51.8614 65.2501C52.1113 65.2501 52.3372 65.2853 52.5391 65.3558C52.741 65.4263 52.914 65.5385 53.0582 65.6923C53.2056 65.8461 53.3177 66.048 53.3947 66.2979C53.4748 66.5446 53.5148 66.8491 53.5148 67.2112V70.5469H52.2363V67.2015C52.2363 66.9644 52.201 66.777 52.1305 66.6392C52.0632 66.5014 51.9639 66.4037 51.8325 66.346C51.7044 66.2883 51.5457 66.2595 51.3567 66.2595C51.1612 66.2595 50.9898 66.2995 50.8424 66.3796C50.6982 66.4565 50.5764 66.5639 50.4771 66.7017C50.381 66.8394 50.3073 66.9981 50.256 67.1775C50.2047 67.3569 50.1791 67.5508 50.1791 67.7591ZM57.1676 70.643C56.7734 70.643 56.4194 70.5789 56.1053 70.4507C55.7913 70.3226 55.5237 70.1447 55.3026 69.9172C55.0848 69.6865 54.9165 69.4189 54.798 69.1145C54.6826 68.8069 54.6249 68.4769 54.6249 68.1244V67.9321C54.6249 67.5316 54.6826 67.1679 54.798 66.841C54.9133 66.511 55.0767 66.2274 55.2882 65.9903C55.4997 65.7532 55.7529 65.5705 56.0477 65.4424C56.3425 65.3142 56.6677 65.2501 57.0234 65.2501C57.3919 65.2501 57.7171 65.3126 57.9991 65.4375C58.2811 65.5593 58.5166 65.7323 58.7057 65.9566C58.8947 66.181 59.0373 66.4501 59.1334 66.7641C59.2296 67.075 59.2776 67.4194 59.2776 67.7975V68.3311H55.2017V67.4563H58.0279V67.3602C58.0215 67.1583 57.9831 66.974 57.9126 66.8074C57.8421 66.6376 57.7331 66.503 57.5857 66.4037C57.4383 66.3011 57.2477 66.2498 57.0138 66.2498C56.8247 66.2498 56.6597 66.2915 56.5187 66.3748C56.3809 66.4549 56.2656 66.5703 56.1726 66.7209C56.0829 66.8683 56.0156 67.0445 55.9708 67.2496C55.9259 67.4547 55.9035 67.6822 55.9035 67.9321V68.1244C55.9035 68.3423 55.9323 68.5442 55.99 68.73C56.0509 68.9159 56.139 69.0777 56.2543 69.2155C56.3729 69.3501 56.5139 69.4558 56.6773 69.5327C56.8439 69.6064 57.033 69.6432 57.2445 69.6432C57.5104 69.6432 57.7508 69.592 57.9655 69.4894C58.1834 69.3837 58.3724 69.2283 58.5326 69.0232L59.1719 69.6865C59.0629 69.8467 58.9155 70.0005 58.7297 70.1479C58.547 70.2953 58.3259 70.4155 58.0664 70.5084C57.8068 70.5981 57.5072 70.643 57.1676 70.643ZM64.5166 68.2446H65.8383C65.8031 68.7124 65.6733 69.1273 65.449 69.4894C65.2247 69.8483 64.9123 70.1303 64.5117 70.3354C64.1112 70.5405 63.6257 70.643 63.0554 70.643C62.6164 70.643 62.2206 70.5661 61.8682 70.4123C61.5189 70.2553 61.2193 70.0326 60.9693 69.7442C60.7226 69.4526 60.5335 69.1033 60.4022 68.6964C60.2708 68.2862 60.2051 67.8264 60.2051 67.3169V66.7834C60.2051 66.2739 60.2724 65.8141 60.407 65.4039C60.5416 64.9937 60.7338 64.6445 60.9838 64.3561C61.2369 64.0645 61.5397 63.8402 61.8922 63.6832C62.2479 63.5262 62.6452 63.4476 63.0842 63.4476C63.6546 63.4476 64.1368 63.5534 64.531 63.7649C64.9251 63.9732 65.2311 64.2599 65.449 64.6252C65.6669 64.9905 65.7983 65.4103 65.8431 65.8846H64.5214C64.4957 65.5898 64.4316 65.3398 64.3291 65.1347C64.2298 64.9297 64.0792 64.7742 63.8773 64.6685C63.6786 64.5596 63.4143 64.5051 63.0842 64.5051C62.8279 64.5051 62.602 64.5531 62.4065 64.6493C62.2142 64.7454 62.054 64.8896 61.9258 65.0819C61.7977 65.2709 61.7015 65.508 61.6374 65.7932C61.5734 66.0752 61.5413 66.4021 61.5413 66.7738V67.3169C61.5413 67.6726 61.5702 67.9914 61.6278 68.2734C61.6855 68.5554 61.7752 68.7941 61.897 68.9896C62.0188 69.185 62.1758 69.334 62.368 69.4366C62.5603 69.5391 62.7894 69.5904 63.0554 69.5904C63.379 69.5904 63.6418 69.5391 63.8436 69.4366C64.0487 69.334 64.2041 69.1834 64.3099 68.9848C64.4188 68.7861 64.4877 68.5394 64.5166 68.2446ZM66.737 67.9994V67.8985C66.737 67.5172 66.7914 67.1663 66.9004 66.8459C67.0093 66.5222 67.168 66.2418 67.3762 66.0047C67.5845 65.7676 67.8393 65.5833 68.1405 65.452C68.4417 65.3174 68.7845 65.2501 69.1691 65.2501C69.56 65.2501 69.9061 65.3174 70.2073 65.452C70.5117 65.5833 70.768 65.7676 70.9763 66.0047C71.1846 66.2418 71.3432 66.5222 71.4522 66.8459C71.5611 67.1663 71.6156 67.5172 71.6156 67.8985V67.9994C71.6156 68.3775 71.5611 68.7284 71.4522 69.052C71.3432 69.3725 71.1846 69.6529 70.9763 69.8932C70.768 70.1303 70.5133 70.3146 70.2121 70.4459C69.9109 70.5773 69.5664 70.643 69.1787 70.643C68.7942 70.643 68.4497 70.5773 68.1453 70.4459C67.8409 70.3146 67.5845 70.1303 67.3762 69.8932C67.168 69.6529 67.0093 69.3725 66.9004 69.052C66.7914 68.7284 66.737 68.3775 66.737 67.9994ZM68.0059 67.8985V67.9994C68.0059 68.2269 68.0283 68.44 68.0732 68.6387C68.118 68.8374 68.1869 69.012 68.2799 69.1626C68.3728 69.3132 68.493 69.4318 68.6404 69.5183C68.791 69.6016 68.9704 69.6432 69.1787 69.6432C69.3838 69.6432 69.56 69.6016 69.7074 69.5183C69.8548 69.4318 69.975 69.3132 70.0679 69.1626C70.164 69.012 70.2345 68.8374 70.2794 68.6387C70.3242 68.44 70.3467 68.2269 70.3467 67.9994V67.8985C70.3467 67.6742 70.3242 67.4643 70.2794 67.2688C70.2345 67.0702 70.164 66.8955 70.0679 66.7449C69.975 66.5911 69.8532 66.4709 69.7026 66.3844C69.5552 66.2947 69.3773 66.2498 69.1691 66.2498C68.964 66.2498 68.7878 66.2947 68.6404 66.3844C68.493 66.4709 68.3728 66.5911 68.2799 66.7449C68.1869 66.8955 68.118 67.0702 68.0732 67.2688C68.0283 67.4643 68.0059 67.6742 68.0059 67.8985ZM73.9802 66.4565V70.5469H72.7113V65.3462H73.9033L73.9802 66.4565ZM73.7783 67.7591H73.4034C73.4066 67.381 73.4579 67.0381 73.5572 66.7305C73.6566 66.4229 73.796 66.1585 73.9754 65.9374C74.158 65.7163 74.3743 65.5465 74.6243 65.4279C74.8742 65.3094 75.153 65.2501 75.4606 65.2501C75.7105 65.2501 75.9365 65.2853 76.1383 65.3558C76.3402 65.4263 76.5132 65.5385 76.6574 65.6923C76.8048 65.8461 76.917 66.048 76.9939 66.2979C77.074 66.5446 77.1141 66.8491 77.1141 67.2112V70.5469H75.8355V67.2015C75.8355 66.9644 75.8003 66.777 75.7298 66.6392C75.6625 66.5014 75.5631 66.4037 75.4318 66.346C75.3036 66.2883 75.145 66.2595 74.9559 66.2595C74.7605 66.2595 74.589 66.2995 74.4416 66.3796C74.2974 66.4565 74.1757 66.5639 74.0763 66.7017C73.9802 66.8394 73.9065 66.9981 73.8552 67.1775C73.804 67.3569 73.7783 67.5508 73.7783 67.7591ZM80.8918 65.3462V66.2595H77.9117V65.3462H80.8918ZM78.7096 64.0677H79.9833V69.0472C79.9833 69.201 80.0042 69.3196 80.0458 69.4029C80.0875 69.4862 80.15 69.5423 80.2333 69.5712C80.3166 69.6 80.4159 69.6144 80.5313 69.6144C80.6146 69.6144 80.6915 69.6096 80.762 69.6C80.8325 69.5904 80.8918 69.5808 80.9398 69.5712L80.9447 70.5228C80.8389 70.5581 80.7187 70.5869 80.5842 70.6094C80.4528 70.6318 80.3038 70.643 80.1372 70.643C79.852 70.643 79.602 70.5949 79.3873 70.4988C79.1726 70.3995 79.006 70.2409 78.8875 70.023C78.7689 69.8019 78.7096 69.5103 78.7096 69.1482V64.0677ZM84.2706 70.643C83.8764 70.643 83.5224 70.5789 83.2083 70.4507C82.8943 70.3226 82.6267 70.1447 82.4056 69.9172C82.1877 69.6865 82.0195 69.4189 81.901 69.1145C81.7856 68.8069 81.7279 68.4769 81.7279 68.1244V67.9321C81.7279 67.5316 81.7856 67.1679 81.901 66.841C82.0163 66.511 82.1797 66.2274 82.3912 65.9903C82.6027 65.7532 82.8559 65.5705 83.1507 65.4424C83.4455 65.3142 83.7707 65.2501 84.1264 65.2501C84.4949 65.2501 84.8201 65.3126 85.1021 65.4375C85.3841 65.5593 85.6196 65.7323 85.8087 65.9566C85.9977 66.181 86.1403 66.4501 86.2364 66.7641C86.3326 67.075 86.3806 67.4194 86.3806 67.7975V68.3311H82.3047V67.4563H85.1309V67.3602C85.1245 67.1583 85.0861 66.974 85.0156 66.8074C84.9451 66.6376 84.8361 66.503 84.6887 66.4037C84.5413 66.3011 84.3507 66.2498 84.1168 66.2498C83.9277 66.2498 83.7627 66.2915 83.6217 66.3748C83.4839 66.4549 83.3685 66.5703 83.2756 66.7209C83.1859 66.8683 83.1186 67.0445 83.0737 67.2496C83.0289 67.4547 83.0065 67.6822 83.0065 67.9321V68.1244C83.0065 68.3423 83.0353 68.5442 83.093 68.73C83.1539 68.9159 83.242 69.0777 83.3573 69.2155C83.4759 69.3501 83.6169 69.4558 83.7803 69.5327C83.9469 69.6064 84.136 69.6432 84.3475 69.6432C84.6134 69.6432 84.8538 69.592 85.0685 69.4894C85.2864 69.3837 85.4754 69.2283 85.6356 69.0232L86.2749 69.6865C86.1659 69.8467 86.0185 70.0005 85.8327 70.1479C85.65 70.2953 85.4289 70.4155 85.1694 70.5084C84.9098 70.5981 84.6102 70.643 84.2706 70.643ZM88.4232 65.3462L89.3509 66.9997L90.2929 65.3462H91.6724L90.1439 67.8937L91.7349 70.5469H90.3554L89.3605 68.8117L88.3607 70.5469H86.9813L88.5674 67.8937L87.0485 65.3462H88.4232ZM95.0656 65.3462V66.2595H92.0856V65.3462H95.0656ZM92.8835 64.0677H94.1572V69.0472C94.1572 69.201 94.178 69.3196 94.2197 69.4029C94.2613 69.4862 94.3238 69.5423 94.4071 69.5712C94.4904 69.6 94.5898 69.6144 94.7051 69.6144C94.7885 69.6144 94.8654 69.6096 94.9359 69.6C95.0063 69.5904 95.0656 69.5808 95.1137 69.5712L95.1185 70.5228C95.0128 70.5581 94.8926 70.5869 94.758 70.6094C94.6266 70.6318 94.4776 70.643 94.311 70.643C94.0258 70.643 93.7759 70.5949 93.5612 70.4988C93.3465 70.3995 93.1799 70.2409 93.0613 70.023C92.9427 69.8019 92.8835 69.5103 92.8835 69.1482V64.0677Z" fill="black"/>
<defs>
<filter id="filter0_dddd_3_135308" x="0" y="44" width="282" height="99" filterUnits="userSpaceOnUse" color-interpolation-filters="sRGB">
<feFlood flood-opacity="0" result="BackgroundImageFix"/>
<feColorMatrix in="SourceAlpha" type="matrix" values="0 0 0 0 0 0 0 0 0 0 0 0 0 0 0 0 0 0 127 0" result="hardAlpha"/>
<feOffset dx="3" dy="2"/>
<feGaussianBlur stdDeviation="4"/>
<feColorMatrix type="matrix" values="0 0 0 0 0.670588 0 0 0 0 0.670588 0 0 0 0 0.670588 0 0 0 0.1 0"/>
<feBlend mode="normal" in2="BackgroundImageFix" result="effect1_dropShadow_3_135308"/>
<feColorMatrix in="SourceAlpha" type="matrix" values="0 0 0 0 0 0 0 0 0 0 0 0 0 0 0 0 0 0 127 0" result="hardAlpha"/>
<feOffset dx="12" dy="9"/>
<feGaussianBlur stdDeviation="7.5"/>
<feColorMatrix type="matrix" values="0 0 0 0 0.670588 0 0 0 0 0.670588 0 0 0 0 0.670588 0 0 0 0.09 0"/>
<feBlend mode="normal" in2="effect1_dropShadow_3_135308" result="effect2_dropShadow_3_135308"/>
<feColorMatrix in="SourceAlpha" type="matrix" values="0 0 0 0 0 0 0 0 0 0 0 0 0 0 0 0 0 0 127 0" result="hardAlpha"/>
<feOffset dx="27" dy="19"/>
<feGaussianBlur stdDeviation="10"/>
<feColorMatrix type="matrix" values="0 0 0 0 0.670588 0 0 0 0 0.670588 0 0 0 0 0.670588 0 0 0 0.05 0"/>
<feBlend mode="normal" in2="effect2_dropShadow_3_135308" result="effect3_dropShadow_3_135308"/>
<feColorMatrix in="SourceAlpha" type="matrix" values="0 0 0 0 0 0 0 0 0 0 0 0 0 0 0 0 0 0 127 0" result="hardAlpha"/>
<feOffset dx="49" dy="34"/>
<feGaussianBlur stdDeviation="12"/>
<feColorMatrix type="matrix" values="0 0 0 0 0.670588 0 0 0 0 0.670588 0 0 0 0 0.670588 0 0 0 0.01 0"/>
<feBlend mode="normal" in2="effect3_dropShadow_3_135308" result="effect4_dropShadow_3_135308"/>
<feBlend mode="normal" in="SourceGraphic" in2="effect4_dropShadow_3_135308" result="shape"/>
</filter>
<linearGradient id="paint0_linear_3_135308" x1="46.7031" y1="39.6562" x2="108.719" y2="39.6562" gradientUnits="userSpaceOnUse">
<stop stop-color="#F5F7FF"/>
<stop offset="1" stop-color="white"/>
</linearGradient>
<linearGradient id="paint1_linear_3_135308" x1="46.7031" y1="95.625" x2="108.719" y2="95.625" gradientUnits="userSpaceOnUse">
<stop stop-color="#F5F7FF"/>
<stop offset="1" stop-color="white"/>
</linearGradient>
<linearGradient id="paint2_linear_3_135308" x1="46.7031" y1="123.609" x2="108.719" y2="123.609" gradientUnits="userSpaceOnUse">
<stop stop-color="#F5F7FF"/>
<stop offset="1" stop-color="white"/>
</linearGradient>
<linearGradient id="paint3_linear_3_135308" x1="46.7031" y1="151.594" x2="108.719" y2="151.594" gradientUnits="userSpaceOnUse">
<stop stop-color="#F5F7FF"/>
<stop offset="1" stop-color="white"/>
</linearGradient>
<linearGradient id="paint4_linear_3_135308" x1="30.9359" y1="67.8416" x2="30.9359" y2="73.4523" gradientUnits="userSpaceOnUse">
<stop stop-color="#B9B9B9"/>
<stop offset="1"/>
</linearGradient>
<linearGradient id="paint5_linear_3_135308" x1="371.045" y1="58" x2="371.045" y2="1681.18" gradientUnits="userSpaceOnUse">
<stop/>
<stop offset="1" stop-color="#757575"/>
</linearGradient>
<clipPath id="clip0_3_135308">
<rect width="13" height="16" fill="white" transform="translate(20 58)"/>
</clipPath>
</defs>
</svg>
