<svg width="66" height="78" viewBox="0 0 66 78" fill="none" xmlns="http://www.w3.org/2000/svg">
<path d="M11.7529 0.5H42.916C43.8071 0.5 44.6557 0.881076 45.2471 1.54688L56.8789 14.6455C57.3847 15.2152 57.6641 15.9504 57.6641 16.7119V57.8223C57.6641 59.5416 56.2693 60.9364 54.5479 60.9365H11.7529C10.0315 60.9364 8.63672 59.5416 8.63672 57.8223V3.61426C8.63672 1.89491 10.0315 0.500123 11.7529 0.5Z" fill="white" stroke="#F0F2FA"/>
<path d="M3.61621 17.666H24.9219C25.9837 17.6661 26.972 18.2066 27.5449 19.0996L30.9219 24.3623L31.0693 24.5928H62.3838C64.1052 24.5929 65.5 25.9877 65.5 27.707V57.8223C65.5 59.5416 64.1052 60.9364 62.3838 60.9365H3.61621C1.89482 60.9364 0.5 59.5416 0.5 57.8223V20.7803C0.5 19.0609 1.89482 17.6661 3.61621 17.666Z" fill="#EDEFFC" stroke="#E1E3EF"/>
<path d="M33.0001 75.9996C48.2296 75.9996 60.5755 73.9771 60.5755 71.4822C60.5755 68.9873 48.2296 66.9648 33.0001 66.9648C17.7707 66.9648 5.4248 68.9873 5.4248 71.4822C5.4248 73.9771 17.7707 75.9996 33.0001 75.9996Z" fill="#F5F7FF"/>
<rect x="15" y="10" width="4" height="4" rx="1" fill="#EDEFFC"/>
<rect x="23" y="10" width="21" height="4" rx="1" fill="#EDEFFC"/>
</svg>
