<svg xmlns="http://www.w3.org/2000/svg" width="18" height="18" viewBox="0 0 18 18" fill="none">
  <path d="M5.68421 9.47368C6.05744 9.47368 6.42702 9.5472 6.77184 9.69003C7.11666 9.83286 7.42997 10.0422 7.69388 10.3061C7.9578 10.57 8.16714 10.8833 8.30997 11.2282C8.4528 11.573 8.52632 11.9426 8.52632 12.3158V15.1579C8.52632 15.5311 8.4528 15.9007 8.30997 16.2455C8.16714 16.5903 7.9578 16.9037 7.69388 17.1676C7.42997 17.4315 7.11666 17.6408 6.77184 17.7837C6.42702 17.9265 6.05744 18 5.68421 18H2.84211C2.08833 18 1.36543 17.7006 0.832433 17.1676C0.299435 16.6346 0 15.9117 0 15.1579L0 12.3158C0 11.562 0.299435 10.8391 0.832433 10.3061C1.36543 9.77312 2.08833 9.47368 2.84211 9.47368H5.68421ZM15.1579 9.47368C15.9117 9.47368 16.6346 9.77312 17.1676 10.3061C17.7006 10.8391 18 11.562 18 12.3158V15.1579C18 15.9117 17.7006 16.6346 17.1676 17.1676C16.6346 17.7006 15.9117 18 15.1579 18H12.3158C11.562 18 10.8391 17.7006 10.3061 17.1676C9.77312 16.6346 9.47368 15.9117 9.47368 15.1579V12.3158C9.47368 11.562 9.77312 10.8391 10.3061 10.3061C10.8391 9.77312 11.562 9.47368 12.3158 9.47368H15.1579ZM5.68421 10.8947H2.84211C2.47964 10.8947 2.13086 11.0332 1.86714 11.2819C1.60342 11.5305 1.44469 11.8706 1.42342 12.2324L1.42105 12.3158V15.1579C1.42103 15.5204 1.55952 15.8691 1.80819 16.1329C2.05685 16.3966 2.39689 16.5553 2.75874 16.5766L2.84211 16.5789H5.68421C6.04668 16.579 6.39545 16.4405 6.65918 16.1918C6.9229 15.9431 7.08163 15.6031 7.10289 15.2413L7.10526 15.1579V12.3158C7.10526 11.9389 6.95555 11.5775 6.68905 11.311C6.42255 11.0445 6.0611 10.8947 5.68421 10.8947ZM15.1579 10.8947H12.3158C11.9533 10.8947 11.6045 11.0332 11.3408 11.2819C11.0771 11.5305 10.9184 11.8706 10.8971 12.2324L10.8947 12.3158V15.1579C10.8947 15.5204 11.0332 15.8691 11.2819 16.1329C11.5305 16.3966 11.8706 16.5553 12.2324 16.5766L12.3158 16.5789H15.1579C15.5204 16.579 15.8691 16.4405 16.1329 16.1918C16.3966 15.9431 16.5553 15.6031 16.5766 15.2413L16.5789 15.1579V12.3158C16.5789 12.1292 16.5422 11.9444 16.4708 11.772C16.3994 11.5996 16.2947 11.4429 16.1627 11.311C16.0308 11.179 15.8741 11.0743 15.7017 11.0029C15.5293 10.9315 15.3445 10.8947 15.1579 10.8947ZM5.68421 0C6.05744 0 6.42702 0.0735132 6.77184 0.216342C7.11666 0.359172 7.42997 0.568519 7.69388 0.832433C7.9578 1.09635 8.16714 1.40966 8.30997 1.75448C8.4528 2.0993 8.52632 2.46887 8.52632 2.84211V5.68421C8.52632 6.05744 8.4528 6.42702 8.30997 6.77184C8.16714 7.11666 7.9578 7.42997 7.69388 7.69388C7.42997 7.9578 7.11666 8.16714 6.77184 8.30997C6.42702 8.4528 6.05744 8.52632 5.68421 8.52632H2.84211C2.08833 8.52632 1.36543 8.22688 0.832433 7.69388C0.299435 7.16088 0 6.43798 0 5.68421L0 2.84211C0 2.08833 0.299435 1.36543 0.832433 0.832433C1.36543 0.299435 2.08833 0 2.84211 0L5.68421 0ZM15.7467 0.913737L17.0863 2.25332C17.3502 2.51724 17.5596 2.83057 17.7025 3.17542C17.8453 3.52027 17.9189 3.88989 17.9189 4.26316C17.9189 4.63643 17.8453 5.00604 17.7025 5.3509C17.5596 5.69575 17.3502 6.00908 17.0863 6.273L15.7467 7.61258C15.4828 7.87654 15.1694 8.08593 14.8246 8.22879C14.4797 8.37165 14.1101 8.44518 13.7368 8.44518C13.3636 8.44518 12.994 8.37165 12.6491 8.22879C12.3043 8.08593 11.9909 7.87654 11.727 7.61258L10.3874 6.273C10.1235 6.00908 9.91407 5.69575 9.77121 5.3509C9.62835 5.00604 9.55482 4.63643 9.55482 4.26316C9.55482 3.88989 9.62835 3.52027 9.77121 3.17542C9.91407 2.83057 10.1235 2.51724 10.3874 2.25332L11.727 0.913737C11.9909 0.649772 12.3043 0.440381 12.6491 0.297522C12.994 0.154662 13.3636 0.0811333 13.7368 0.0811333C14.1101 0.0811333 14.4797 0.154662 14.8246 0.297522C15.1694 0.440381 15.4828 0.649772 15.7467 0.913737ZM5.68421 1.42105H2.84211C2.47964 1.42103 2.13086 1.55952 1.86714 1.80819C1.60342 2.05685 1.44469 2.39689 1.42342 2.75874L1.42105 2.84211V5.68421C1.42103 6.04668 1.55952 6.39545 1.80819 6.65918C2.05685 6.9229 2.39689 7.08163 2.75874 7.10289L2.84211 7.10526H5.68421C6.04668 7.10528 6.39545 6.96679 6.65918 6.71813C6.9229 6.46946 7.08163 6.12942 7.10289 5.76758L7.10526 5.68421V2.84211C7.10526 2.65549 7.06851 2.4707 6.99709 2.29829C6.92568 2.12588 6.821 1.96923 6.68905 1.83727C6.55709 1.70531 6.40043 1.60064 6.22802 1.52922C6.05561 1.45781 5.87083 1.42105 5.68421 1.42105ZM12.8004 1.85447L12.7322 1.91842L11.3921 3.25895C11.1371 3.51399 10.9886 3.85644 10.9768 4.2169C10.9649 4.57735 11.0905 4.92883 11.3282 5.20011L11.3921 5.26832L12.7322 6.60837C12.9872 6.86336 13.3297 7.01184 13.6901 7.02372C14.0506 7.03559 14.402 6.90997 14.6733 6.67232L14.7415 6.60837L16.0816 5.26832C16.3366 5.01327 16.4851 4.67082 16.4969 4.31037C16.5088 3.94991 16.3832 3.59843 16.1455 3.32716L16.0816 3.25895L14.7411 1.91842C14.4972 1.67464 14.1731 1.52783 13.829 1.50535C13.4849 1.48286 13.1444 1.58624 12.8709 1.79621L12.7999 1.85447H12.8004Z" fill="#7367F0"/>
</svg>
