<svg width="14" height="13" viewBox="0 0 14 13" fill="none" xmlns="http://www.w3.org/2000/svg">
<path d="M7.38858 8.31666V4.31666M5.38858 6.31666H9.38858M7.38858 11.9833C10.5182 11.9833 13.0553 9.44627 13.0553 6.31666C13.0553 3.18705 10.5182 0.649994 7.38858 0.649994C4.25897 0.649994 1.72192 3.18705 1.72192 6.31666C1.72192 6.94999 1.82582 7.55905 2.0175 8.12774C2.08963 8.34174 2.1257 8.44874 2.1322 8.53095C2.13863 8.61213 2.13377 8.66904 2.11369 8.74796C2.09335 8.82787 2.04845 8.91098 1.95865 9.0772L0.868209 11.0956C0.712668 11.3835 0.634898 11.5274 0.652303 11.6385C0.667464 11.7353 0.724416 11.8205 0.808034 11.8715C0.904036 11.93 1.06678 11.9132 1.39228 11.8796L4.80629 11.5267C4.90968 11.516 4.96137 11.5106 5.00849 11.5124C5.05483 11.5142 5.08755 11.5186 5.13274 11.529C5.17869 11.5396 5.23646 11.5618 5.35202 11.6064C5.98406 11.8498 6.67073 11.9833 7.38858 11.9833Z" stroke="#5252FF" stroke-width="1.3" stroke-linecap="round" stroke-linejoin="round"/>
</svg>
