<svg width="40" height="59" viewBox="0 0 40 59" fill="none" xmlns="http://www.w3.org/2000/svg">
<g clip-path="url(#clip0_3_135659)">
<path fill-rule="evenodd" clip-rule="evenodd" d="M3.46315 2.64795H36.5395C38.0832 2.64795 39.3346 3.80772 39.3346 5.23836V44.0946C39.3346 45.5252 38.0832 46.685 36.5395 46.685H3.46315C1.91941 46.685 0.667969 45.5252 0.667969 44.0946V5.23836C0.667969 3.80772 1.91941 2.64795 3.46315 2.64795Z" fill="#EDEFFC"/>
<path fill-rule="evenodd" clip-rule="evenodd" d="M33.0117 4.79639C33.5712 4.79639 34.0778 5.01984 34.4445 5.38111C34.8111 5.74239 35.0379 6.24148 35.0379 6.79276V41.4667C35.0379 42.018 34.8111 42.5171 34.4445 42.8783C34.0778 43.2396 33.5712 43.4631 33.0117 43.4631H6.99013C6.4306 43.4631 5.92403 43.2396 5.55735 42.8783C5.19066 42.5171 4.96387 42.018 4.96387 41.4667V6.79276C4.96387 6.24148 5.19066 5.74239 5.55735 5.38111C5.92403 5.01984 6.4306 4.79639 6.99013 4.79639H33.0117Z" fill="white" stroke="#E7EAFA"/>
<path d="M27.7126 0.5H12.5066C12.0267 0.5 11.6377 0.889026 11.6377 1.36891V6.5824C11.6377 7.06228 12.0267 7.45131 12.5066 7.45131H27.7126C28.1925 7.45131 28.5815 7.06228 28.5815 6.5824V1.36891C28.5815 0.889026 28.1925 0.5 27.7126 0.5Z" fill="#EDEFFC"/>
<path d="M23.1511 15.0544H9.90016C9.42028 15.0544 9.03125 15.4435 9.03125 15.9234V17.6612C9.03125 18.1411 9.42028 18.5301 9.90016 18.5301H23.1511C23.631 18.5301 24.02 18.1411 24.02 17.6612V15.9234C24.02 15.4435 23.631 15.0544 23.1511 15.0544Z" fill="#EDEFFC"/>
<path d="M30.9713 22.2227H9.90016C9.42028 22.2227 9.03125 22.6117 9.03125 23.0916V24.8294C9.03125 25.3093 9.42028 25.6983 9.90016 25.6983H30.9713C31.4512 25.6983 31.8402 25.3093 31.8402 24.8294V23.0916C31.8402 22.6117 31.4512 22.2227 30.9713 22.2227Z" fill="#EDEFFC"/>
<path d="M27.7129 29.3909H9.90016C9.42028 29.3909 9.03125 29.7799 9.03125 30.2598V31.9976C9.03125 32.4775 9.42028 32.8665 9.90016 32.8665H27.7129C28.1928 32.8665 28.5818 32.4775 28.5818 31.9976V30.2598C28.5818 29.7799 28.1928 29.3909 27.7129 29.3909Z" fill="#EDEFFC"/>
<path d="M20.0004 58.5C30.9779 58.5 39.8768 57.0412 39.8768 55.2416C39.8768 53.442 30.9779 51.9832 20.0004 51.9832C9.02299 51.9832 0.124023 53.442 0.124023 55.2416C0.124023 57.0412 9.02299 58.5 20.0004 58.5Z" fill="#F5F7FF"/>
</g>
<defs>
<clipPath id="clip0_3_135659">
<rect width="39.7528" height="58" fill="white" transform="translate(0.124023 0.5)"/>
</clipPath>
</defs>
</svg>
