<svg width="40" height="59" viewBox="0 0 40 59" fill="none" xmlns="http://www.w3.org/2000/svg">
<g clip-path="url(#clip0_3_135608)">
<path fill-rule="evenodd" clip-rule="evenodd" d="M3.11097 4.11328L25.0797 4.11328C25.8087 4.11328 26.5028 4.42531 26.9866 4.97054L35.1863 14.2106C35.6003 14.677 35.8289 15.2791 35.8289 15.9027V44.9045C35.8289 46.3125 34.6875 47.4539 33.2795 47.4539H3.11097C1.70295 47.4539 0.561523 46.3125 0.561523 44.9045V6.66273C0.561523 5.25471 1.70295 4.11328 3.11097 4.11328Z" fill="#EDEFFC"/>
<path fill-rule="evenodd" clip-rule="evenodd" d="M28.6912 1.0332C29.2682 1.0332 29.8177 1.28023 30.2008 1.71186L38.4005 10.9519C38.7282 11.3212 38.9092 11.7978 38.9092 12.2915V41.2933C38.9092 41.8506 38.6833 42.3552 38.3181 42.7204C37.9528 43.0857 37.4483 43.3116 36.8909 43.3116H6.72242C6.16507 43.3116 5.6605 43.0857 5.29525 42.7204C4.93001 42.3552 4.7041 41.8506 4.7041 41.2933V3.05152C4.7041 2.49418 4.93001 1.9896 5.29525 1.62435C5.6605 1.25911 6.16507 1.0332 6.72242 1.0332H28.6912Z" fill="white" stroke="#F0F2FA" stroke-width="1.07407"/>
<path d="M27.9323 17.0847L18.3396 26.1117C17.9978 26.4333 17.9814 26.9712 18.3031 27.313L19.0311 28.0866C19.3527 28.4284 19.8905 28.4447 20.2323 28.1231L29.825 19.0961C30.1668 18.7745 30.1832 18.2366 29.8615 17.8948L29.1335 17.1212C28.8119 16.7794 28.2741 16.7631 27.9323 17.0847Z" fill="#EDEFFC"/>
<path d="M14.2989 23.754L19.156 28.5971C19.3212 28.7624 19.7242 28.6273 20.0561 28.2954L20.8073 27.5443C21.1391 27.2124 21.2742 26.8094 21.1089 26.6442L16.2519 21.801C16.0866 21.6358 15.6836 21.7708 15.3517 22.1027L14.6006 22.8538C14.2687 23.1857 14.1337 23.5887 14.2989 23.754Z" fill="#EDEFFC"/>
<path d="M20.0011 58.5008C30.7373 58.5008 39.4406 57.074 39.4406 55.314C39.4406 53.554 30.7373 52.1272 20.0011 52.1272C9.26491 52.1272 0.561523 53.554 0.561523 55.314C0.561523 57.074 9.26491 58.5008 20.0011 58.5008Z" fill="#F5F7FF"/>
</g>
<defs>
<clipPath id="clip0_3_135608">
<rect width="38.8791" height="58" fill="white" transform="translate(0.560547 0.5)"/>
</clipPath>
</defs>
</svg>
