<svg width="62" height="59" viewBox="0 0 62 59" fill="none" xmlns="http://www.w3.org/2000/svg">
<g clip-path="url(#clip0_3_135629)">
<path fill-rule="evenodd" clip-rule="evenodd" d="M5.07916 7.75195H41.3292C43.1087 7.75195 44.5514 9.19459 44.5514 10.9742V33.7982C44.5514 35.5778 43.1087 37.0205 41.3292 37.0205H17.6995L12.8131 42.7845C12.3337 43.3501 11.4864 43.4199 10.9208 42.9404C10.6199 42.6854 10.4464 42.3108 10.4464 41.9163V37.0205H5.07916C3.29957 37.0205 1.85693 35.5778 1.85693 33.7982V10.9742C1.85693 9.19459 3.29957 7.75195 5.07916 7.75195Z" fill="#EDEFFC"/>
<path d="M26.024 15.5391H9.37583C8.78264 15.5391 8.30176 16.0199 8.30176 16.6131V17.9557C8.30176 18.5489 8.78264 19.0298 9.37583 19.0298H26.024C26.6172 19.0298 27.0981 18.5489 27.0981 17.9557V16.6131C27.0981 16.0199 26.6172 15.5391 26.024 15.5391Z" fill="white"/>
<path d="M26.024 23.3262H9.37583C8.78264 23.3262 8.30176 23.8071 8.30176 24.4002V25.7428C8.30176 26.336 8.78264 26.8169 9.37583 26.8169H26.024C26.6172 26.8169 27.0981 26.336 27.0981 25.7428V24.4002C27.0981 23.8071 26.6172 23.3262 26.024 23.3262Z" fill="white"/>
<path fill-rule="evenodd" clip-rule="evenodd" d="M57.5885 1.17285C58.2929 1.17285 58.9307 1.45837 59.3923 1.92C59.8539 2.38163 60.1394 3.01936 60.1394 3.72378V26.5478C60.1394 27.2523 59.8539 27.89 59.3923 28.3516C58.9307 28.8133 58.2929 29.0988 57.5885 29.0988H48.6601V34.3345C48.6601 34.5199 48.5849 34.6877 48.4635 34.8092C48.342 34.9306 48.1742 35.0058 47.9888 35.0058C47.8026 35.0058 47.6248 34.9285 47.4978 34.7923L42.1881 29.0988H21.3385C20.6341 29.0988 19.9964 28.8133 19.5347 28.3516C19.0731 27.89 18.7876 27.2523 18.7876 26.5478V3.72378C18.7876 3.01936 19.0731 2.38163 19.5347 1.92C19.9964 1.45837 20.6341 1.17285 21.3385 1.17285H57.5885Z" fill="white" stroke="#F0F2FA"/>
<path d="M39.4634 7.84205C43.1479 7.84205 46.1356 10.8344 46.1356 14.5247C46.1356 16.9977 44.7942 19.1571 42.8005 20.3125V22.1617C42.8003 24.0067 41.3056 25.502 39.4634 25.502C37.6215 25.5016 36.1285 24.0065 36.1283 22.1617V20.3125C34.1344 19.1571 32.7932 16.9978 32.7932 14.5247C32.7932 10.8346 35.7792 7.84239 39.4634 7.84205ZM40.8928 21.0533C40.4325 21.1539 39.9538 21.2073 39.4634 21.2073C38.9728 21.2072 38.4945 21.154 38.0341 21.0533V22.1617C38.0343 22.9522 38.6743 23.5929 39.4634 23.5933C40.2245 23.5933 40.8469 22.9975 40.8908 22.2463L40.8928 22.1617V21.0533ZM39.4634 9.75275C36.8319 9.75309 34.699 11.889 34.699 14.5247C34.699 17.1604 36.8319 19.2982 39.4634 19.2985C42.0953 19.2985 44.2298 17.1606 44.2298 14.5247C44.2298 11.8888 42.0952 9.75275 39.4634 9.75275ZM31.9786 7.78432C32.1646 7.59814 32.4668 7.5983 32.653 7.78432L33.3273 8.45971C33.5133 8.64607 33.5133 8.94871 33.3273 9.13509L32.653 9.81046C32.4668 9.99654 32.1646 9.9967 31.9786 9.81046L31.3043 9.13509C31.1186 8.94877 31.1186 8.64601 31.3043 8.45971L31.9786 7.78432ZM46.2758 7.78432C46.4618 7.59885 46.7624 7.59889 46.9483 7.78432L47.6225 8.45971C47.8086 8.64611 47.8086 8.94869 47.6225 9.13509L46.9483 9.81046C46.7622 9.99595 46.4618 9.99599 46.2758 9.81046L45.6015 9.13509C45.4154 8.94869 45.4154 8.64611 45.6015 8.45971L46.2758 7.78432ZM39.9399 4.50171C40.203 4.50171 40.4162 4.71543 40.4163 4.9789V5.93328C40.4163 6.19688 40.2031 6.41048 39.9399 6.41048H38.987C38.724 6.41019 38.5105 6.1967 38.5105 5.93328V4.9789C38.5107 4.71561 38.7241 4.502 38.987 4.50171H39.9399Z" fill="#EDEFFC"/>
<path d="M31.3336 58.5014C44.9029 58.5014 55.903 56.6981 55.903 54.4736C55.903 52.2491 44.9029 50.4458 31.3336 50.4458C17.7643 50.4458 6.76416 52.2491 6.76416 54.4736C6.76416 56.6981 17.7643 58.5014 31.3336 58.5014Z" fill="#F5F7FF"/>
</g>
<defs>
<clipPath id="clip0_3_135629">
<rect width="60.9537" height="58" fill="white" transform="translate(0.855957 0.5)"/>
</clipPath>
</defs>
</svg>
